<svg width="60" height="60" fill="none" xmlns="http://www.w3.org/2000/svg"><circle r="30" transform="matrix(-1 0 0 1 30 30)" fill="#FFD500"/><path d="M22.336 14.415h-4.541c-1.572 0-2.795 2.27-2.795 4.017v26.55C15 47.428 16.397 49 19.017 49h21.835c2.096 0 3.493-1.921 3.493-3.493V17.559c0-2.27-1.572-3.319-2.795-3.319h-5.24m-13.974.175v1.747H36.31V14.24m-13.974.175s.175-1.747 1.572-1.747h2.271S26.878 9 29.498 9s3.144 3.668 3.144 3.668h1.921c1.048 0 1.747 1.572 1.747 1.572M24.083 30.135l4.542 5.066 6.812-7.511M18.319 43.76c0 1.223.873 1.747 1.747 1.747h19.213c1.048 0 1.747-.874 1.747-1.747V20.528c0-1.572-1.048-2.096-2.096-2.096H20.066c-1.223 0-1.747.699-1.747 1.747v23.58z" stroke="#000" stroke-linecap="round" stroke-linejoin="round"/></svg>