<svg width="60" height="60" fill="none" xmlns="http://www.w3.org/2000/svg"><circle r="30" transform="matrix(-1 0 0 1 30 30)" fill="#FFD500"/><path d="M45.025 30.697c0-4.328-1.748-8.247-4.577-11.09m4.577 11.09h-2.19m2.19 0c0 4.327-1.748 8.246-4.577 11.089m-11.145 4.632v-2.19m0 2.19a15.673 15.673 0 01-11.144-4.632m11.145 4.632c4.355 0 8.297-1.771 11.144-4.632m-26.866-11.09c0-4.327 1.748-8.246 4.577-11.088m-4.577 11.088h1.99m-1.99 0c0 4.328 1.748 8.247 4.577 11.09m11.145-26.81a15.673 15.673 0 00-11.145 4.632m11.145-4.633v2.19m0-2.19a15.67 15.67 0 0111.144 4.633m-22.289 0l1.194 1.337m21.095-1.337l-1.393 1.337m-20.896 20.84l1.194-1.536m21.095 1.537l-1.393-1.537m5.174-21.795a19.224 19.224 0 014.378 12.242C48.607 41.358 39.965 50 29.304 50 18.642 50 10 41.358 10 30.697c0-10.662 8.642-19.304 19.303-19.304 4.6 0 8.824 1.609 12.14 4.294m2.786 2.767l1.592-1.29m-1.592 1.29a19.427 19.427 0 00-2.786-2.767m4.378 1.477l.995.995L50 14.975 45.025 10l-3.184 3.383.995.995m2.985 2.786l-2.985-2.786m0 0l-1.393 1.309M27.91 29.303a1.99 1.99 0 002.786 2.786m-2.786-2.786a1.99 1.99 0 112.786 2.786m-2.786-2.786l-6.766-6.766m9.553 9.553l4.776 4.776" stroke="#000" stroke-linecap="round" stroke-linejoin="round"/></svg>