<svg width="60" height="60" fill="none" xmlns="http://www.w3.org/2000/svg"><circle cx="30" cy="30" r="30" fill="#FFD500"/><path d="M27.23 32.781a12.069 12.069 0 01-5.843-7.09c-1.978-6.388 1.598-13.17 7.986-15.146 6.388-1.978 13.17 1.598 15.147 7.986 1.977 6.389-1.599 13.17-7.987 15.147a12.07 12.07 0 01-9.303-.897zm0 0l-1.416 2.87m0 0s-2.416-.98-3.384.856c-.969 1.836-4.828 8.6-5.313 9.518-.484.918.626 3.263 1.544 3.747s2.955.238 3.68-1.139l4.962-9.41c1.09-2.065-1.49-3.571-1.49-3.571zM23.84 24.933a9.54 9.54 0 0011.934 6.293 9.54 9.54 0 10-5.641-18.227 9.54 9.54 0 00-6.293 11.934z" stroke="#000" stroke-linecap="round" stroke-linejoin="round"/></svg>