<svg width="60" height="60" fill="none" xmlns="http://www.w3.org/2000/svg"><circle cx="30" cy="30" r="30" fill="#FFD500"/><path d="M20.815 35.295c.845.312 1.894.065 2.765.544 1.075.592 1.869 2.326 3.086 2.635.707.18 1.435-.23 2.179-.579m-8.03-2.6a1.721 1.721 0 01-.593-.363c-1.017-.957-.65-2.965-1.362-4.176-.63-1.07-2.375-1.32-2.72-2.542-.357-1.27.904-2.428.904-3.812 0-1.253-1.295-2.651-1-3.813.344-1.355 2.124-1.547 2.816-2.723.712-1.21.345-3.4 1.362-4.357.9-.846 2.631-.308 3.721-.908.968-.532 1.275-2.232 2.36-2.537 1.27-.358 2.61.903 3.994.903 1.517 0 2.98-1.222 4.357-.796 1.157.359 1.708 2.177 2.724 2.793.99.602 2.449-.003 3.267.808.903.894.805 2.993 1.453 4.094.754 1.282 2.203 1.6 2.542 3.092.237 1.05-.908 2.323-.908 3.444 0 1.384 1.08 2.542.722 3.812-.344 1.222-1.727 1.472-2.356 2.542-.648 1.101-.55 3.019-1.453 3.912-.194.193-.444.325-.726.425m-19.104.202l-4.674 11.619 5.079-1.09L24.125 50l4.72-12.105m0 0c.478-.224.962-.422 1.452-.422.672 0 1.333.212 1.981.422m0 0c.893.29 1.761.578 2.596.304 1.076-.352 1.19-1.782 2.14-2.36.756-.459 1.996-.427 2.905-.746m-7.64 2.802L36.832 50l3.086-4.176 4.72 1.09-4.72-11.821m-14.705-11.78l4.72 5.264 7.08-7.806m3.631 3.45c0 5.714-4.633 10.348-10.348 10.348-5.715 0-10.348-4.634-10.348-10.349s4.633-10.348 10.348-10.348c5.716 0 10.348 4.633 10.348 10.348z" stroke="#000" stroke-linecap="round" stroke-linejoin="round"/></svg>