<svg width="60" height="60" fill="none" xmlns="http://www.w3.org/2000/svg"><circle cx="30" cy="30" r="30" fill="#FFD500"/><path d="M16.632 35.462v10.236c0 .826-1.156 1.816-1.156 1.816m1.156-12.052H13v10.236c0 1.156 1.156 1.816 2.476 1.816m1.156-12.052v-19.83c0-1.981 1.156-3.632 2.476-3.632h24.765c2.476 0 2.476 3.632 2.476 3.632h-2.476M15.476 47.514h21.958m6.439-31.882v29.736c0 1.32-.826 2.146-1.486 2.146h-1.568m3.054-31.882h-3.22m-18.408 0h15.189m0 0v24.076m0-24.076h3.22m.19 24.076c1.04.692 1.378 2.026 1.378 2.853 0 .786-.534 1.8-1.446 2.369m.068-5.222c-.413-.275-.937-.449-1.594-.449-2.311 0-3.302 1.651-3.302 3.302 0 1.043.592 1.888 1.486 2.369m3.41-5.222l-.19-24.076m-3.22 29.298a3.833 3.833 0 001.816.438c.582 0 1.096-.17 1.526-.438m-3.342 0v2.584m0 0V49l1.816-1.981L40.844 49l-.025-1.486m-.043-2.584l.043 2.584" stroke="#000" stroke-linecap="round" stroke-linejoin="round"/></svg>