<svg width="60" height="60" fill="none" xmlns="http://www.w3.org/2000/svg"><circle cx="30" cy="30" r="30" fill="#FFD500"/><path d="M32.814 18.042a12.14 12.14 0 018.9 9.577m0 4.33a12.138 12.138 0 01-9.333 9.68m-13.855-6.217l2.165-1.299m.433 5.196l1.732-1.732m2.165 4.051l.866-1.886M17.852 27.62a12.136 12.136 0 019.767-9.767m1.244-5.364L28.425 9h2.625l-.408 3.485m-1.78.003l.922 7.337.858-7.34m-1.78.003c-8.706.456-15.71 7.343-16.35 16m18.13-16.003c8.736.426 15.771 7.325 16.413 16.003m-34.543 0L9 27.9v3.15l3.486-.392m.026-2.17l7.746 1.296-7.772.874m0 0c.44 8.86 7.538 15.967 16.395 16.422m0 0L28.425 51h2.625l-.424-3.917m-1.745-.003l.902-7.77.843 7.773m0 0c8.9-.426 16.04-7.57 16.458-16.474m0 0L51 31.05V27.9l-11.258 1.884 7.342.825zM32.1 30a2.1 2.1 0 11-4.2 0 2.1 2.1 0 014.2 0z" stroke="#000" stroke-linecap="round" stroke-linejoin="round"/></svg>