<svg width="60" height="81" fill="none" xmlns="http://www.w3.org/2000/svg"><path d="M30.348 44.65L21.845 80l-5.389-7.142-8.037 4.154 8.503-35.35 13.425 2.988z" fill="#FFD500" stroke="#000" stroke-linecap="round" stroke-linejoin="round"/><path d="M27.029 44.65L35.532 80l5.388-7.142 8.037 4.154-8.503-35.35L27.03 44.65z" fill="#FFD500" stroke="#000" stroke-linecap="round" stroke-linejoin="round"/><path d="M26.46 56C43.49 56 60 40.41 60 24.075 60 7.739 49.296 0 32.267 0 15.237 0 4 10.576 4 26.912S9.43 56 26.46 56z" fill="#FFD500"/><path d="M28.5 50C40.374 50 50 40.374 50 28.5S40.374 7 28.5 7 7 16.626 7 28.5 16.626 50 28.5 50z" fill="#fff" stroke="#000" stroke-linecap="round" stroke-linejoin="round"/><path d="M28.5 56C43.688 56 56 43.688 56 28.5S43.688 1 28.5 1 1 13.312 1 28.5 13.312 56 28.5 56z" stroke="#000" stroke-linecap="round" stroke-linejoin="round"/></svg>