<svg width="64" height="82" fill="none" xmlns="http://www.w3.org/2000/svg"><path d="M57.994 1.4L6.517 3.325c-2.238 0-4.052 1.837-4.052 4.104l2.202 68.237c0 2.266 1.815 4.103 4.053 4.103l51.227-1.48c2.239 0 4.053-1.837 4.053-4.103L62.046 5.503c0-2.266-1.814-4.103-4.052-4.103z" fill="#FFD500"/><path d="M56.796 3.967H5.052C2.814 3.967 1 5.804 1 8.07v68.827C1 79.163 2.814 81 5.052 81h51.744c2.239 0 4.053-1.837 4.053-4.103V8.07c0-2.266-1.814-4.103-4.053-4.103z" stroke="#000" stroke-linecap="round" stroke-linejoin="round"/><path d="M50.818 13H10.182C8.425 13 7 14.455 7 16.25v54.5C7 72.546 8.425 74 10.182 74h40.636C52.575 74 54 72.545 54 70.75v-54.5c0-1.795-1.425-3.25-3.182-3.25zM38.34 5.945h-15.1c-.955 0-1.73-.591-1.73-1.32V2.32c0-.729.775-1.32 1.73-1.32h15.1c.955 0 1.73.591 1.73 1.32v2.305c0 .729-.775 1.32-1.73 1.32z" fill="#fff" stroke="#000" stroke-linecap="round" stroke-linejoin="round"/></svg>