<svg width="67" height="81" fill="none" xmlns="http://www.w3.org/2000/svg"><path d="M4.883 11.152L37.14 0 67 9.346v33.752C67 63.349 37.139 80 37.139 80s-33.16-9.895-33.16-30.596c0-20.702.904-38.253.904-38.253z" fill="#FFD500"/><path d="M1 12.272L32.781 1.455l31.307 10.817v35.275C64.088 68.712 32.781 80 32.781 80S1 69.182 1 47.547V12.272z" stroke="#000" stroke-linecap="round" stroke-linejoin="round"/><path d="M8 17.814L32.684 9 57 17.814v28.743C57 63.802 32.684 73 32.684 73S8 64.186 8 46.557V17.814z" fill="#fff" stroke="#000" stroke-linecap="round" stroke-linejoin="round"/></svg>