<svg width="84" height="84" fill="none" xmlns="http://www.w3.org/2000/svg"><path d="M35.713 80.018C58.264 80.018 84 66.086 84 43.239 84 20.393 66.79 0 44.24 0 21.688 0 4.478 17.908 4.478 40.755c0 22.846 8.682 39.263 31.234 39.263z" fill="#FFD500"/><path d="M40.264 75.048c17.292 0 31.31-14.464 31.31-32.306 0-17.841-14.018-32.305-31.31-32.305-17.293 0-31.312 14.464-31.312 32.306 0 17.841 14.019 32.305 31.312 32.305z" fill="#fff" stroke="#000" stroke-linecap="round" stroke-linejoin="round"/><path d="M41.258 83c22.233 0 40.257-18.024 40.257-40.258 0-22.233-18.024-40.257-40.258-40.257C19.024 2.485 1 20.51 1 42.743 1 64.975 19.024 83 41.258 83z" stroke="#000" stroke-linecap="round" stroke-linejoin="round"/><path d="M39.766 19.383v22.863h13.42" stroke="#000" stroke-linecap="round" stroke-linejoin="round"/></svg>