<svg width="90" height="90" fill="none" xmlns="http://www.w3.org/2000/svg"><path d="M90 45.008A45 45 0 1144.985 0 44.992 44.992 0 0190 45.008z" fill="#fff"/><path d="M45.238 60.412S67.69 68.156 70.53 71.688c1.057 1.323 1.868 5.422 2.47 8.784 0 0-12.075 9.528-28.08 9.528C28.913 90 17 80.472 17 80.472c.708-3.532 1.677-7.736 2.953-8.784 3.3-2.712 25.285-11.276 25.285-11.276z" fill="#293033"/><path d="M51.867 62.816s-.847 4.11-6.855 4.11c-6.008 0-6.848-4.11-6.848-4.11a9.206 9.206 0 000-7.242c-1.673-3.905 15.746-4.693 13.703 0-2.043 4.694 0 7.242 0 7.242z" fill="#DDA778"/><path d="M59.32 47.385c.44-5.869 4.155-14.316 4.155-14.316 5.297-11.828-.204-29.662-10.435-24.18C40.373-2.705 20.306 13.49 27.116 32.91c0 0 3.216 7.856 3.526 13.649.31 5.793 10.707 17.386 14.045 17.576 3.336.19 14.21-10.896 14.634-16.75z" fill="#442928"/><path d="M64.382 36.459c0 3.1-2.194 7.355-3.67 7.355-1.475 0-2.678-2.51-2.678-5.611a6.654 6.654 0 012.679-5.611c1.43-1.123 3.67 0 3.67 3.867zm-38.302 0c0 3.1 2.194 7.355 3.669 7.355 1.476 0 2.671-2.51 2.671-5.611a6.653 6.653 0 00-2.671-5.611c-1.43-1.123-3.67 0-3.67 3.867z" fill="#F9BB8D"/><path d="M45.276 11.884c-10.389 0-14.982 7.302-14.982 18.198V43.73c0 9.479 10.927 17.584 14.377 17.584 3.45 0 15.588-9.478 15.588-18.456V30.067c.015-10.881-4.578-18.183-14.983-18.183z" fill="#F9BB8D"/><path d="M60.274 37.831l.938-7.939c0-10.88-5.531-18.956-15.89-18.956-10.36 0-16.042 9.281-16.042 20.162l1.06 8.515a5.792 5.792 0 002.345-4.739c-.25-6.984 3.405-8.015 9.08-9.099 8.96-1.714 11.48-7.097 11.48-7.097s2.935.993 4.812 5.383c1.218 2.836-.371 5.922-.462 7.704-.09 1.782 2.679 6.066 2.679 6.066zM46.267 55.597a12.12 12.12 0 01-3.155 0c1.68 2.586 0 6.248 0 6.248h3.155a8.463 8.463 0 010-6.248z" fill="#442928"/></svg>