<svg width="90" height="90" fill="none" xmlns="http://www.w3.org/2000/svg"><path d="M90 45.008A45 45 0 1144.985 0 44.992 44.992 0 0190 45.008z" fill="#fff"/><path d="M44.809 61.254s23.334 8.028 26.277 11.688c.755.936 2.389 4.396 2.914 6.558 0 0-9.747 10.5-29.53 10.5S16 79.5 16 79.5c.666-2.617 1.502-5.717 2.531-6.558 3.463-2.827 26.278-11.688 26.278-11.688z" fill="#003662"/><path d="M52.044 65.534a5.55 5.55 0 01-1.223 2.153 5.584 5.584 0 01-2.04 1.412c-.997.445-2.29 6.106-3.988 6.106-1.7 0-3.12-5.693-4.14-6.177a5.517 5.517 0 01-1.934-1.406 5.486 5.486 0 01-1.154-2.088 9.488 9.488 0 000-7.575c-1.763-4.089 16.61-4.914 14.455 0-2.154 4.915.024 7.575.024 7.575z" fill="#DDA778"/><path d="M61.306 49.25c1.372-6.011 2.968-14.864 2.968-14.864C69.858 22 64.066 3.326 53.273 9.066c-13.354-12.133-34.47 4.843-27.29 25.161a142.114 142.114 0 002.21 15.245c1.595 6.653 13.098 11.608 16.616 11.806 3.518.199 15.07-5.66 16.497-12.029z" fill="#281511"/><path d="M65.239 37.943c0 3.24-2.314 7.702-3.877 7.702-1.564 0-2.816-2.629-2.816-5.876a6.927 6.927 0 01.674-3.286 6.963 6.963 0 012.142-2.59c1.515-1.175 3.877 0 3.877 4.05zm-40.389 0c0 3.24 2.313 7.702 3.869 7.702 1.555 0 2.824-2.629 2.824-5.876a6.926 6.926 0 00-.679-3.287 6.962 6.962 0 00-2.145-2.588c-1.508-1.176-3.87 0-3.87 4.049z" fill="#F9BB8D"/><path d="M45.128 12.21c-10.953 0-15.795 7.646-15.795 19.055v14.237c0 9.924 11.52 18.412 15.157 18.412 3.638 0 16.433-9.925 16.433-19.325v-13.38c-.016-11.353-4.858-19-15.795-19z" fill="#F9BB8D"/><path d="M60.907 39.38l.973-8.313c0-11.401-5.823-19.85-16.752-19.85-10.929 0-16.354 8.488-16.354 19.85l.559 10.14a10.614 10.614 0 001.189-5.392c-.264-7.312 4.874-7.94 10.865-9.107 9.429-1.794 12.085-7.408 12.085-7.408s3.096 1.04 5.074 5.638c1.276 2.97 1.595 7.519 1.476 9.385.077 1.716.375 3.416.885 5.057z" fill="#281511"/><path d="M35.81 31.067c-4.244 0-6.892 1.588-6.892 3.232 0 2.644.973 6.931 5.177 7.44 4.077.492 9.39-.977 9.39-7.734 0-1.572-3.439-2.938-7.675-2.938zm-1.412 9.91c-3.597-.43-4.427-4.106-4.427-6.353 0-1.429 2.265-2.77 5.895-2.77 3.63 0 6.574 1.174 6.574 2.516 0 5.772-4.555 7.027-8.042 6.606z" fill="#AC0F09"/><path d="M46.141 35.72a1.454 1.454 0 00-.605-.81 1.466 1.466 0 00-.99-.222c-.966 0-1.205 1.127-1.205 1.127l-.51-2.977c.331.298.735.506 1.172.603a4.81 4.81 0 001.277 0 1.9 1.9 0 00.861-.603v2.882zm-16.633 1.612s-1.524-.111-1.524-.89V34.06c0-1.222 1.524-.794 1.524-.794v4.066z" fill="#AC0F09"/><path d="M45.455 34.005c0 6.757 5.313 8.226 9.39 7.733 4.211-.508 5.177-4.764 5.177-7.44 0-1.667-2.649-3.23-6.893-3.23s-7.674 1.365-7.674 2.937zm1.053.35c0-1.343 2.944-2.518 6.565-2.518 3.622 0 5.896 1.342 5.896 2.771 0 2.263-.798 5.94-4.428 6.352-3.63.413-8.033-.818-8.033-6.574v-.032z" fill="#AC0F09"/><path d="M59.432 37.332s1.523-.111 1.523-.89V34.06c0-1.222-1.523-.794-1.523-.794v4.066z" fill="#AC0F09"/></svg>