<svg width="90" height="90" fill="none" xmlns="http://www.w3.org/2000/svg"><path d="M90 45.008A45 45 0 1144.985 0 44.992 44.992 0 0190 45.008z" fill="#fff"/><path d="M72.415 80.685a44.998 44.998 0 01-56.016-.943c.715-3.86 1.73-7.52 3.107-8.652 3.273-2.693 25.071-11.197 25.071-11.197s22.263 7.69 25.079 11.197c1.242 1.557 2.141 5.586 2.759 9.595z" fill="#2C472F"/><path d="M51.48 64s-.852 4.123-6.895 4.123c-6.044 0-6.889-4.123-6.889-4.123a9.214 9.214 0 000-7.264c-1.681-3.918 15.84-4.709 13.784 0-2.055 4.708 0 7.264 0 7.264z" fill="#DDA778"/><path d="M58.977 48.52c.442-5.887 4.179-14.361 4.179-14.361C68.484 22.293 62.95 4.4 52.66 9.9 39.919-1.729 19.734 14.518 26.584 34c0 0 3.235 7.88 3.547 13.692.312 5.812 10.77 17.442 14.126 17.633 3.357.19 14.294-10.931 14.72-16.804z" fill="#1F1F1F"/><path d="M64.07 37.56c0 3.11-2.208 7.378-3.692 7.378s-2.695-2.518-2.695-5.63a6.66 6.66 0 012.695-5.628c1.438-1.126 3.691 0 3.691 3.88zm-38.529 0c0 3.11 2.208 7.378 3.692 7.378s2.687-2.518 2.687-5.63a6.661 6.661 0 00-2.687-5.628c-1.439-1.126-3.692 0-3.692 3.88z" fill="#F9BB8D"/><path d="M44.85 12.906c-10.45 0-15.07 7.325-15.07 18.256v13.692c0 9.508 10.991 17.64 14.462 17.64 3.47 0 15.679-9.508 15.679-18.515V31.147c.015-10.916-4.605-18.241-15.07-18.241z" fill="#F9BB8D"/><path d="M59.937 38.936l.943-7.964c0-10.916-5.564-19.017-15.983-19.017-10.42 0-16.136 9.31-16.136 20.226l1.066 8.543a5.813 5.813 0 002.36-4.755c-.252-7.005 3.424-8.04 9.133-9.128 9.011-1.719 11.546-7.12 11.546-7.12s2.953.997 4.84 5.401c1.226 2.845-.373 5.941-.464 7.729-.091 1.787 2.695 6.085 2.695 6.085zM45.848 56.758c-1.053.138-2.12.138-3.174 0 1.69 2.594 0 6.268 0 6.268h3.174a8.47 8.47 0 010-6.268z" fill="#1F1F1F"/></svg>