<svg width="90" height="90" fill="none" xmlns="http://www.w3.org/2000/svg"><path d="M90 45.008A45 45 0 1144.985 0 44.992 44.992 0 0190 45.008z" fill="#fff"/><path d="M23.855 60.013c3.744 8.448 34.502 9.305 38.899.919-5.157-3.515-1.086-16.767-1.086-16.767l1.382-9.867c3.136-12.553-7.686-31.391-18.386-24.75-6.258-6.194-21.765 7.05-18.105 24.591l.076 8.03s3.136 14.869-2.78 17.844z" fill="#F7DAA2"/><path d="M72.298 80.775a44.998 44.998 0 01-55.877-1.015c.716-3.833 1.726-7.453 3.083-8.574 3.243-2.68 25.016-11.173 25.016-11.173s22.213 7.674 25.023 11.173c1.24 1.556 2.14 5.583 2.755 9.589z" fill="#6E7ABA"/><path d="M51.407 64.112s-.85 4.113-6.88 4.113-6.88-4.113-6.88-4.113a9.156 9.156 0 000-7.249c-1.671-3.908 15.81-4.698 13.76 0-2.05 4.698 0 7.249 0 7.249z" fill="#DDA778"/><path d="M63.969 37.73c0 3.103-2.203 7.361-3.684 7.361-1.48 0-2.688-2.512-2.688-5.616a6.646 6.646 0 012.688-5.617c1.436-1.123 3.684 0 3.684 3.871zm-38.45 0c0 3.103 2.202 7.361 3.69 7.361 1.489 0 2.681-2.512 2.681-5.616a6.668 6.668 0 00-2.68-5.617c-1.436-1.123-3.691 0-3.691 3.871z" fill="#F9BB8D"/><path d="M44.808 13.13c-10.427 0-15.037 7.31-15.037 18.216v13.662c0 9.487 10.967 17.601 14.43 17.601 3.463 0 15.644-9.487 15.644-18.474V31.331c0-10.892-4.61-18.2-15.037-18.2z" fill="#F9BB8D"/><path d="M59.845 39.103l.44-5.662c2.279-11.006-4.951-21.662-15.378-21.662S26.392 23.4 29.179 34.412l.592 6.437a7.732 7.732 0 002.354-4.744s11.726-5.95 12.432-17.009c3.737 9.343 13.207 16.121 13.207 16.121.501 3.157 2.08 3.886 2.08 3.886z" fill="#F7DAA2"/></svg>