<svg width="90" height="91" fill="none" xmlns="http://www.w3.org/2000/svg"><path d="M90 44.974a44.96 44.96 0 01-7.584 24.986 44.995 44.995 0 01-20.195 16.564 45.025 45.025 0 01-49.04-9.749 44.95 44.95 0 01-9.755-49.012A44.98 44.98 0 0119.998 7.579a45.02 45.02 0 0156.82 5.593A44.974 44.974 0 0190 44.974z" fill="#fff"/><path d="M74.773 79.337A45.57 45.57 0 0115 78.367c.711-2.783 1.62-5.119 2.753-5.986 3.57-2.733 27.265-11.396 27.265-11.396s24.206 7.835 27.266 11.396c1.041 1.206 1.86 3.912 2.489 6.956z" fill="#004B74"/><path d="M56.08 65.97l-11.023 4.204-11.022-4.203v-5.613a37.684 37.684 0 0111.293-1.772 32.058 32.058 0 0110.752 1.772v5.613z" fill="#013958"/><path d="M54.383 60.815l-9.365 4.204-9.364-4.204V53.43h18.73v7.385z" fill="#DDA778"/><path d="M63.895 38.938V28.781C63.895 14.546 58.195 5 45.305 5s-18.59 9.545-18.59 23.782v10.156a54.827 54.827 0 005.422-5.287c1.17-1.324-2.82-8.616-1.603-11.682 1.479-3.716 5.259-6.363 5.259-6.363s1.55 1.811 8.52 2.446c7.111.658 9.582-3.26 9.582-3.26s.604 16.258 2.192 18.379a15.986 15.986 0 007.808 5.767z" fill="#000"/><path d="M64.832 34.673c0 3.166-2.246 7.509-3.764 7.509-1.518 0-2.735-2.563-2.735-5.729a6.8 6.8 0 012.735-5.728c1.471-1.146 3.764 0 3.764 3.948zm-39.217 0c0 3.166 2.246 7.509 3.764 7.509 1.518 0 2.735-2.563 2.735-5.729a6.8 6.8 0 00-2.735-5.728c-1.472-1.146-3.764 0-3.764 3.948z" fill="#F9BB8D"/><path d="M45.29 9.583c-10.636 0-15.337 7.455-15.337 18.579v13.934c0 2.029.774 7.293 1.549 8.91 2.517 5.195 9.976 10.947 13.509 10.947 3.532 0 11.928-5.69 13.942-10.629.775-1.904 1.72-7.741 1.72-10.118v-13.06c-.047-11.108-4.748-18.563-15.384-18.563z" fill="#F9BB8D"/><path d="M60.626 36.074l.953-5.775C62.253 17.185 55.924 7.5 45.313 7.5 34.7 7.5 28.89 18.586 29.302 30.3l.674 5.775s0-4.335 2.16-6.627c.97-1.03 0-4.226.992-6.619 1.216-2.903 4.338-4.962 4.338-4.962s1.294 1.41 6.971 1.904c5.864.512 7.901-2.546 7.901-2.546s3.493.263 5.422 4.745c1.24 2.895.287 4.235.194 6.046-.093 1.812 2.672 8.059 2.672 8.059z" fill="#000"/></svg>