<svg width="90" height="91" fill="none" xmlns="http://www.w3.org/2000/svg"><path d="M90 45.008A45 45 0 1144.983 0 44.992 44.992 0 0190 45.008z" fill="#fff"/><path d="M74.41 80.02a45.376 45.376 0 01-59.518-.965c.707-2.772 1.611-5.098 2.74-5.962 3.556-2.72 27.15-11.346 27.15-11.346s24.102 7.8 27.149 11.346c1.037 1.202 1.853 3.896 2.478 6.927z" fill="#F9B233"/><path d="M55.795 66.711L44.82 70.897 33.844 66.71v-5.588a37.53 37.53 0 0111.246-1.766c3.643-.026 7.264.57 10.705 1.766v5.588z" fill="#BA821E"/><path d="M54.106 61.577l-9.325 4.186-9.325-4.186v-7.354h18.65v7.354z" fill="#DDA778"/><path d="M63.578 39.794V29.68C63.578 15.504 57.9 6 45.067 6s-18.51 9.504-18.51 23.68v10.114a54.603 54.603 0 005.398-5.265c1.165-1.319-2.807-8.58-1.596-11.632 1.473-3.7 5.237-6.336 5.237-6.336s1.542 1.803 8.484 2.435c7.08.655 9.54-3.245 9.54-3.245s.602 16.188 2.183 18.3a15.919 15.919 0 007.775 5.742z" fill="#2C2822"/><path d="M64.511 35.546c0 3.153-2.236 7.477-3.748 7.477s-2.723-2.552-2.723-5.704a6.773 6.773 0 012.723-5.705c1.465-1.14 3.748 0 3.748 3.932zm-39.051 0c0 3.153 2.238 7.477 3.75 7.477 1.511 0 2.722-2.552 2.722-5.704a6.772 6.772 0 00-2.723-5.705c-1.465-1.14-3.748 0-3.748 3.932z" fill="#F9BB8D"/><path d="M45.052 10.563c-10.59 0-15.272 7.423-15.272 18.5v13.875c0 2.02.772 7.261 1.543 8.872 2.507 5.173 9.934 10.9 13.451 10.9 3.517 0 11.878-5.666 13.883-10.584.772-1.896 1.713-7.708 1.713-10.074V29.048c-.047-11.062-4.728-18.485-15.318-18.485z" fill="#F9BB8D"/><path d="M60.323 36.941l.949-5.75c.67-13.058-5.63-22.701-16.197-22.701s-16.352 11.038-15.943 22.7l.671 5.751s0-4.316 2.152-6.598c.964-1.025 0-4.209.987-6.59 1.211-2.891 4.32-4.942 4.32-4.942s1.288 1.403 6.941 1.896c5.839.51 7.867-2.535 7.867-2.535s3.479.261 5.4 4.725c1.233 2.883.285 4.216.192 6.02-.093 1.804 2.66 8.024 2.66 8.024z" fill="#2C2822"/></svg>