<svg width="90" height="90" fill="none" xmlns="http://www.w3.org/2000/svg"><path d="M90 45.008A45 45 0 1144.985 0 44.992 44.992 0 0190 45.008z" fill="#fff"/><path d="M64.002 28.696c-2.342.75.278 10.098 3.002 6.354.173 1.381-.488 2.814-2.019 2.746-.368 1.568 1.967 1.276 2.012 3.114.045 1.838-1.659 1.658-1.667 3.33a2.356 2.356 0 003.146 2.087c1.719-.608 1.854-2.101 2.252-3.407a4.635 4.635 0 01.21 4.622c1.088.135 1.644-.84 1.681-1.8a3 3 0 01-.202 3.098c.42-.09 1.006.127 1.434.06.277 1.613-1.096 3.428-2.373 4.366-1.276.938-4.143.796-1.861 2.686 1.674 1.395 3.093.593 3.153 3.286.037 1.928-.886 3.751-2.935 3.669a.555.555 0 00-.136-.323c1.502 1.71 1.081 4.502-.465 6.002.315-1.005.473-2.438-.503-3.06.135.75 0 1.582-.75 1.867.315 3.616-6.486 3.804-8.919 4.037-1.846.18-3.55.937-5.374 1.117a36.42 36.42 0 01-5.338-.217c-.165-7.503-4.159-14.255-6.838-21.127-1.209-3.098.57-4.951 2.777-7.36 3.175-3.473 6.628-6.474 9.398-10.173l10.315-4.974z" fill="#331B19"/><path d="M25.297 28.696c2.343.75-.277 10.098-3.002 6.354-.18 1.381.488 2.814 2.012 2.746.375 1.568-1.96 1.276-2.005 3.114-.045 1.838 1.674 1.628 1.674 3.3a2.355 2.355 0 01-3.145 2.087c-1.727-.608-1.854-2.101-2.252-3.406a4.635 4.635 0 00-.203 4.621c-1.088.135-1.651-.84-1.689-1.8a3 3 0 00.203 3.098c-.42-.09-.998.127-1.426.06-.278 1.613 1.096 3.428 2.372 4.366 1.276.938 4.144.796 1.861 2.686-1.681 1.396-3.1.593-3.152 3.286-.038 1.928.878 3.751 2.927 3.669a.615.615 0 01.143-.323c-1.502 1.71-1.081 4.502.465 6.002-.315-1.005-.48-2.438.503-3.06-.135.75 0 1.582.75 1.867-.307 3.616 6.494 3.804 8.926 4.037 1.847.18 3.544.937 5.368 1.117a36.493 36.493 0 005.344-.217c.166-7.503 4.16-14.255 6.84-21.127 1.208-3.098-.571-4.952-2.778-7.36-3.176-3.473-6.636-6.474-9.406-10.173l-10.33-4.944z" fill="#331B19"/><path d="M71.868 81.099a44.995 44.995 0 01-35.646 8.036 45 45 0 01-19.712-9.302c.706-3.867 1.717-7.565 3.097-8.704 3.236-2.67 24.735-11.043 24.735-11.043s21.957 7.585 24.727 11.043c1.278 1.593 2.189 5.848 2.799 9.97z" fill="#D84B58"/><path d="M51.143 64.137s-.84 4.066-6.801 4.066c-5.96 0-6.794-4.066-6.794-4.066a9.05 9.05 0 000-7.165c-1.659-3.864 15.622-4.644 13.595 0-2.027 4.644 0 7.165 0 7.165z" fill="#DDA778"/><path d="M58.545 48.862c.428-5.8 4.113-14.157 4.113-14.157 5.255-11.703-3.175-28.809-10.351-23.925C44.62.532 18.812 12.003 26.589 34.548c0 0 3.19 7.772 3.498 13.504.308 5.732 10.622 11.254 13.932 11.434 3.31.18 14.09-4.825 14.526-10.624z" fill="#331B19"/><path d="M63.56 38.059c0 3.06-2.178 7.277-3.641 7.277-1.464 0-2.658-2.483-2.658-5.552a6.569 6.569 0 012.658-5.552c1.418-1.11 3.64 0 3.64 3.827zm-38 0c0 3.06 2.177 7.277 3.641 7.277s2.65-2.483 2.65-5.552a6.567 6.567 0 00-2.65-5.552c-1.419-1.11-3.64 0-3.64 3.827z" fill="#F9BB8D"/><path d="M44.62 13.744c-10.307 0-14.864 7.217-14.864 18.005v13.452c0 9.378 10.84 17.398 14.263 17.398s15.464-9.378 15.464-18.26V31.733c0-10.773-4.557-17.99-14.863-17.99z" fill="#F9BB8D"/><path d="M59.483 39.417l.435-5.597c2.252-10.886-4.894-21.412-15.2-21.412-10.308 0-18.302 11.486-15.547 22.372l.585 6.362a7.643 7.643 0 002.327-4.689c.466-4.014 3.378-7.93 9.008-9.003 8.896-1.703 11.41-7.007 11.41-7.007a43.079 43.079 0 013.754 7.022c1.201 2.806 0 4.502 1.036 7.33a24.668 24.668 0 002.192 4.622z" fill="#331B19"/></svg>