<svg width="90" height="90" fill="none" xmlns="http://www.w3.org/2000/svg"><path d="M90 45.008A45 45 0 1144.985 0 44.992 44.992 0 0190 45.008z" fill="#fff"/><path d="M64.957 29.436c-2.314.741.275 9.977 2.967 6.279.17 1.363-.482 2.78-1.995 2.712-.364 1.55 1.943 1.26 1.987 3.077.045 1.816-1.639 1.638-1.646 3.29a2.326 2.326 0 003.108 2.062c1.698-.6 1.832-2.076 2.225-3.366a4.579 4.579 0 01.207 4.566c1.076.134 1.625-.83 1.662-1.779a2.964 2.964 0 01-.2 3.062c.415-.09.993.126 1.416.059.275 1.594-1.083 3.388-2.344 4.314-1.26.927-4.094.786-1.84 2.654 1.655 1.379 3.057.585 3.116 3.246.037 1.905-.875 3.707-2.9 3.625a.548.548 0 00-.133-.319c1.483 1.69 1.067 4.448-.46 5.93.311-.993.467-2.409-.497-3.024.133.742 0 1.564-.742 1.846.311 3.573-6.408 3.758-8.811 3.988-1.825.178-3.508.927-5.31 1.104a35.993 35.993 0 01-5.274-.215c-.163-7.412-4.109-14.083-6.757-20.873-1.194-3.062.564-4.893 2.744-7.272 3.138-3.432 6.55-6.397 9.286-10.051l10.191-4.915z" fill="#000"/><path d="M26.716 29.436c2.314.741-.274 9.977-2.967 6.279-.178 1.363.483 2.78 1.988 2.712.371 1.55-1.936 1.26-1.98 3.077-.045 1.816 1.654 1.608 1.654 3.261a2.327 2.327 0 01-3.108 2.06c-1.706-.6-1.832-2.075-2.225-3.364a4.578 4.578 0 00-.2 4.566c-1.076.133-1.632-.83-1.669-1.78a2.964 2.964 0 00.2 3.062c-.415-.089-.986.126-1.409.06-.274 1.593 1.083 3.387 2.344 4.313 1.26.927 4.094.786 1.84 2.654-1.662 1.379-3.064.586-3.116 3.247-.037 1.905.868 3.706 2.893 3.625a.607.607 0 01.14-.32c-1.483 1.69-1.067 4.448.46 5.93-.311-.992-.474-2.408.497-3.023-.133.74 0 1.564.742 1.845-.304 3.573 6.416 3.758 8.819 3.988 1.824.178 3.5.927 5.303 1.105a36.052 36.052 0 005.28-.215c.164-7.413 4.11-14.084 6.757-20.874 1.194-3.061-.563-4.892-2.744-7.272-3.137-3.432-6.556-6.397-9.293-10.051l-10.206-4.885z" fill="#000"/><path d="M72.624 80.523a44.994 44.994 0 01-36.402 8.612 44.999 44.999 0 01-18.353-8.234c.701-4.145 1.75-8.322 3.225-9.54 3.197-2.638 24.438-10.91 24.438-10.91s21.695 7.493 24.432 10.91c1.192 1.485 2.06 5.313 2.66 9.162z" fill="#6E7ABA"/><path d="M52.252 64.453s-.83 4.018-6.72 4.018c-5.888 0-6.711-4.018-6.711-4.018a8.943 8.943 0 000-7.079c-1.64-3.817 15.434-4.588 13.431 0-2.002 4.588 0 7.08 0 7.08z" fill="#DDA778"/><path d="M59.565 49.361c.423-5.73 4.065-13.987 4.065-13.987 5.192-11.564-3.138-28.465-10.228-23.639-7.595-10.126-33.094 1.208-25.41 23.483 0 0 3.152 7.68 3.456 13.342.304 5.664 10.495 11.12 13.766 11.297 3.27.178 13.921-4.766 14.351-10.496z" fill="#000"/><path d="M64.52 38.687c0 3.024-2.151 7.19-3.597 7.19-1.447 0-2.626-2.454-2.626-5.485a6.49 6.49 0 012.626-5.486c1.401-1.097 3.597 0 3.597 3.78zm-37.544 0c0 3.024 2.15 7.19 3.597 7.19 1.446 0 2.618-2.454 2.618-5.485a6.49 6.49 0 00-2.618-5.486c-1.402-1.097-3.597 0-3.597 3.78z" fill="#F9BB8D"/><path d="M45.806 14.663c-10.183 0-14.685 7.13-14.685 17.79v13.29c0 9.266 10.71 17.19 14.092 17.19 3.382 0 15.279-9.266 15.279-18.042V32.438c0-10.645-4.502-17.775-14.685-17.775z" fill="#F9BB8D"/><path d="M60.492 40.029l.43-5.53c2.225-10.755-4.836-21.155-15.019-21.155s-18.082 11.348-15.36 22.104l.578 6.286a7.552 7.552 0 002.3-4.633c.46-3.966 3.337-7.835 8.9-8.895 8.789-1.683 11.273-6.923 11.273-6.923a42.565 42.565 0 013.709 6.938c1.187 2.772 0 4.447 1.023 7.242a24.372 24.372 0 002.166 4.566z" fill="#000"/></svg>