<svg width="90" height="90" fill="none" xmlns="http://www.w3.org/2000/svg"><path d="M90 45A45 45 0 11.001 45 45 45 0 0190 45z" fill="#fff"/><path d="M24.314 59.641c3.79 8.55 34.918 9.418 39.368.93-5.218-3.557-1.099-16.969-1.099-16.969l1.4-9.986c3.173-12.705-7.78-31.77-18.609-25.05-6.333-6.268-22.028 7.137-18.323 24.889l.077 8.127s3.174 15.048-2.814 18.06z" fill="#432918"/><path d="M73.244 80.032a45 45 0 01-56.523-.028c.728-4.016 1.771-7.884 3.19-9.055 3.281-2.712 25.317-11.308 25.317-11.308S67.71 67.407 70.554 70.95c1.191 1.494 2.07 5.24 2.69 9.083z" fill="#6E7ABA"/><path d="M52.2 63.789s-.861 4.163-6.964 4.163c-6.103 0-6.964-4.163-6.964-4.163a9.267 9.267 0 000-7.336c-1.69-3.956 16.003-4.755 13.927 0-2.075 4.755 0 7.336 0 7.336z" fill="#DDA778"/><path d="M64.912 37.088c0 3.142-2.229 7.451-3.728 7.451-1.498 0-2.72-2.543-2.72-5.684a6.726 6.726 0 012.72-5.685c1.453-1.136 3.728 0 3.728 3.918zm-38.914 0c0 3.142 2.229 7.451 3.735 7.451 1.507 0 2.713-2.543 2.713-5.684a6.75 6.75 0 00-2.713-5.685c-1.452-1.136-3.735 0-3.735 3.918z" fill="#F9BB8D"/><path d="M45.52 12.192c-10.552 0-15.218 7.398-15.218 18.436v13.827c0 9.602 11.099 17.813 14.604 17.813 3.505 0 15.833-9.602 15.833-18.697V30.613c0-11.023-4.665-18.42-15.218-18.42z" fill="#F9BB8D"/><path d="M60.739 38.479l.445-5.73c2.306-11.14-5.011-21.924-15.564-21.924s-18.738 11.76-15.918 22.906l.6 6.514a7.826 7.826 0 002.383-4.8s11.867-6.023 12.581-17.215c3.782 9.456 13.367 16.316 13.367 16.316.507 3.195 2.105 3.933 2.105 3.933z" fill="#432918"/><path d="M37.511 31.719c-4.08 0-6.633 1.536-6.633 3.126 0 2.558.93 6.714 4.989 7.205 3.92.469 9.039-.952 9.039-7.49 0-1.535-3.267-2.841-7.395-2.841zm-1.352 9.594c-3.474-.422-4.274-3.979-4.274-6.145 0-1.383 2.183-2.681 5.68-2.681s6.334 1.137 6.334 2.435c0 5.577-4.382 6.79-7.74 6.391z" fill="#AC0F09"/><path d="M47.465 36.22a1.398 1.398 0 00-1.538-.998c-.922 0-1.16 1.09-1.16 1.09l-.484-2.872c.317.286.704.484 1.122.576a4.37 4.37 0 001.23 0 1.85 1.85 0 00.83-.576v2.78zm-16.018 1.56s-1.476-.1-1.476-.853v-2.305c0-1.19 1.476-.814 1.476-.814v3.972z" fill="#AC0F09"/><path d="M46.812 34.56c0 6.538 5.119 7.959 9.038 7.49 4.059-.491 4.989-4.647 4.989-7.205 0-1.613-2.552-3.126-6.633-3.126-4.082 0-7.394 1.306-7.394 2.842zm1.007.339c0-1.298 2.836-2.435 6.333-2.435 3.497 0 5.68 1.298 5.68 2.68 0 2.19-.769 5.747-4.273 6.146-3.505.4-7.771-.791-7.771-6.391h.03z" fill="#AC0F09"/><path d="M60.27 37.78s1.475-.1 1.475-.853v-2.305c0-1.19-1.475-.814-1.475-.814v3.972z" fill="#AC0F09"/></svg>