<svg width="149" height="135" fill="none" xmlns="http://www.w3.org/2000/svg"><path d="M148.795 125.827v-.092c0-.29-.532-.452-.728-.522-1.017-.335-2.045-.579-3.062-.903a34.157 34.157 0 00-5.246-1.007l-1.155-.382a55.086 55.086 0 00-6.759-2.108 356.257 356.257 0 00-5.546-1.25l-.393-.105-.416-.081-.266-.058a30.756 30.756 0 00-4.621-.497l-2.057-.151a52.763 52.763 0 00-6.343-.428c-1.3-.03-2.599.063-3.882.277-7.147.06-14.285.497-21.386 1.309-7.499.868-14.928 2.235-22.438 3.022-3.628.382-7.267.614-10.907.903-2.565.197-5.176.244-7.753.44-1.155 0-2.253 0-3.362.093a3.809 3.809 0 00-1.363 0c-1.41.139-2.762.301-4.171.301h-.878c-.925 0-1.826-.197-2.75-.231a18.93 18.93 0 00-2.138-.232 21.184 21.184 0 00-3.466-.452c-.924-.208-1.883-.486-2.83-.706l-2.196-.741-1.537-.544a46.746 46.746 0 00-1.663-.753 15.54 15.54 0 00-2.727-1.679 34.227 34.227 0 01-3.605-3.127c-.416-.636-.878-1.239-1.27-1.899v-.069a7.293 7.293 0 00-.22-.984 45.89 45.89 0 01-.532-3.961 9.518 9.518 0 01.393-2.315h1.641c.438.029.878-.006 1.305-.105.844-.069 1.64-.173 2.415-.301 1.756 0 3.57-.208 5.292-.428a49.692 49.692 0 015.996-.683c1.156 0 2.311 0 3.559-.105h.266a53.38 53.38 0 018.018.962h.104c.162.011.324.011.485 0l1.93.301c1.729.287 3.484.384 5.234.289a16.316 16.316 0 002.819-.359h.439c2.415 0 4.737-1.03 7.163-1.03 1.156.061 2.316.03 3.467-.093 1.236-.209 2.31-1.008 3.466-1.065a9.611 9.611 0 004.344-1.737c.543-.22 1.086-.429 1.618-.684.119.044.243.071.37.081l.958.51c.051.075.11.145.174.208.716.695 3.951 1.054 5.557 1.158.463.014.927-.009 1.387-.069 2.126.139 4.286 0 6.424 0a32.189 32.189 0 015.384.231c.755.194 1.53.299 2.31.313.367.148.765.196 1.156.139h.266a.209.209 0 00.22-.112.204.204 0 00.022-.085h1.006c.013.048.041.09.081.12a.22.22 0 00.138.042c1.866.175 3.748.014 5.557-.474.497.266.971.671 1.549.44a.254.254 0 00.497-.058v.139a.241.241 0 00.069-.186 1.6 1.6 0 00-.162-.625 3.027 3.027 0 01-.15-.637.16.16 0 000-.069h.254a8.91 8.91 0 002.311.752c.321.058.649.058.97 0 .139 0 .208-.15.301-.231.765.124 1.536.201 2.311.231a.652.652 0 00.716-.22.296.296 0 00.219-.243v-.104a.376.376 0 000-.116 3.874 3.874 0 00-1.155-1.725c-.497-.359-.589-.776-.947-1.158a1.808 1.808 0 00-.705-.649l-.52-.463a6.705 6.705 0 00-3.016-1.03.233.233 0 00-.067-.164.232.232 0 00-.164-.068h-.762a18.268 18.268 0 00-3.189-.081 41.489 41.489 0 01-4.31-.208c-1.305-.14-2.553-.464-3.882-.51a25.998 25.998 0 01-4.54-.533 47.774 47.774 0 01-4.033-1.019 13.297 13.297 0 00-1.502-.312 2.643 2.643 0 01-.97-.487 6.733 6.733 0 00-.232-.382 9.347 9.347 0 00.659-1.551v-.128c.254-.288.457-.617.6-.972a26.99 26.99 0 001.318-4.076 20.19 20.19 0 00.635-5.674c.201-.416.308-.87.312-1.332a7.21 7.21 0 00-.358-2.316v-2.316c.332-.271.617-.596.844-.961.281-.413.5-.865.647-1.343l.22-.36c.055-.03.1-.08.126-.138.035-.117.08-.23.139-.336.185-.359.462-.73.635-1.158l.185-.243h.278c.219.03.422.132.577.29.174.231.162.416.416.602a8.16 8.16 0 002.311 1.076c.57.293 1.21.417 1.849.36.624-.116 1.27-.082 1.906-.151l.358.359a.23.23 0 00.37-.07c.07.09.148.176.231.255.705.672.994-.185 1.537-.741.104.162-.451.278-.231.567.866.417 1.028-.66 1.594-.914.393.139-.115.463 0 .636.67.105 1.04-.335 1.386-.74a7.125 7.125 0 001.156-.128 6.907 6.907 0 001.155-.452c.865-.3 1.704-.672 2.507-1.111a15.24 15.24 0 003.201-3.138c.173-.174.347-.336.497-.51l.242.185a.094.094 0 000 .081c.171.215.383.393.624.522l.185.197a6.775 6.775 0 001.652 1.042 9.598 9.598 0 002.854.903l.405.452c.277 1.03.797 3.832 2.079 3.358.007.05.007.1 0 .15-.057.556-.069 1.158.301 1.401.369.243.912-.185 1.259-.51a3.474 3.474 0 001.352-1.829c.33-.65.53-1.358.589-2.084.066-.304.089-.616.069-.927a1.889 1.889 0 00-.288-.73c0-.069-.07-.138-.104-.22a.233.233 0 00.104-.335 34.45 34.45 0 00-5.073-5.79c-.843-.74-1.86-1.262-2.738-1.98a18.52 18.52 0 00-2.484-1.957.209.209 0 00-.312.162h-.254a2.994 2.994 0 00-.462 0c-.111.006-.22.03-.324.07h-.231a.221.221 0 00-.15-.277.222.222 0 00-.116-.001c-1.155.29-2.426 0-3.616.29-.589.118-1.168.28-1.733.486.185-.336.335-.707.485-.985a8.72 8.72 0 00.659-1.366 5.136 5.136 0 001.005-2.316c.254-.695.531-1.378.82-2.084.289-.706.786-1.413 1.156-2.142 1.074-.244.901-1.668 1.34-2.664.319-.663.706-1.292 1.155-1.876.532-.73.948-1.412 1.352-2.072l1.768-.73.335-.116 2.311-.787c1.848-.648 3.685-1.158 5.58-1.737a26.995 26.995 0 005.073-1.679 8.085 8.085 0 002.195-.776 5.912 5.912 0 002.449-2.698c.208-.162.439-.313.659-.463h.115a68.22 68.22 0 01-3.362 8.245 31.59 31.59 0 003.859-8.477l.948-.463a73.734 73.734 0 01-3.166 9.356 5.09 5.09 0 00.624-1.157 40.457 40.457 0 003.154-8.454l.474-.22c1.837-.845 3.755-1.598 5.534-2.57a.232.232 0 00-.15-.428c.173-.14.346-.267.497-.406.185-.154.349-.333.485-.533h.115a.232.232 0 00.093-.266c.234-.48.383-.997.439-1.528a5.07 5.07 0 00.219-1.077 6.996 6.996 0 000-1.158 8.023 8.023 0 00-.473-3.787 4.464 4.464 0 00-2.404-2.49 1.612 1.612 0 00-.231-.324.216.216 0 00-.138-.127h-.058a9.03 9.03 0 00-1.075-.428c.37-.857.624-1.818.971-2.71a7.014 7.014 0 00-1.398 2.582c-.751-.174-1.387-.637-2.103-.857-.15 0-.289-.104-.439-.139a17.765 17.765 0 001.768-3.682 5.984 5.984 0 00-1.306 2.05c-.289.497-.624.984-.924 1.47l-1.04-.359a2.1 2.1 0 00.208-.764.857.857 0 00-.531.637 51.1 51.1 0 01-2.196-.915c-1.444-.66-2.946-1.077-4.367-1.83a.22.22 0 00-.277.082l-.486-.232a10.604 10.604 0 01-1.536-1.158.241.241 0 00.101-.35.242.242 0 00-.101-.09l-1.537-.625a17.717 17.717 0 00-2.507-1.413l-.959-.405a77.716 77.716 0 01-1.606-8.396c-.358.163-.127.823-.116 1.089.14 2.384.508 4.75 1.098 7.063a6.571 6.571 0 00-.774-.231 23.34 23.34 0 01-1.225-4.505c-.347.348-.069.927 0 1.309a18.24 18.24 0 00.797 3.103l-.566-.058-.728-.254a40.652 40.652 0 01-.866-7.458 18.89 18.89 0 00.45 7.33c-.67-.197-1.328-.37-1.964-.51-1.814-.428-3.697-.324-5.511-.706a19.007 19.007 0 00-.081-4.516 6.516 6.516 0 00-2.53-2.86A5.037 5.037 0 0099.644.05a4.78 4.78 0 00-2.415 1.4 8.87 8.87 0 00-.716.534 2.49 2.49 0 00-1.271 0 7.31 7.31 0 00-1.41.08c-.808.128-1.502 1.159-1.918 1.784a24.68 24.68 0 00-1.848 3.81l-.07.127a9.7 9.7 0 00-.67 1.274c0 .115-.104.231-.15.359l-.59.995a5.498 5.498 0 00-.427 1.158 31.18 31.18 0 00-3.212 2.085 7.01 7.01 0 00-1.259 1.053c-1.317.695-2.657 1.378-3.986 2.062h-.093l-.219.127-.428.22a13.854 13.854 0 00-2.865 1.633c-.543.266-1.155.52-1.64.799a22.797 22.797 0 00-3.64 2.316l-.693.243c-1.294.347-2.6.671-3.917.972h-1.225c-1.675 0-3.35.209-5.014.302-1.941.115-3.882.07-5.777.173-1.156.07-2.311.07-3.466.232-1.156.162-2.219 0-3.34.07-2.237.038-4.465.29-6.655.752a26.7 26.7 0 00-3.165.521 4.29 4.29 0 00-1.317.37c-.416.128-.832.267-1.237.418-2.31.903-4.298 2.2-6.47 3.265a44.305 44.305 0 00-6.747 4.041 25.57 25.57 0 00-3.236 2.675 12.926 12.926 0 00-1.663 1.714c-.185-.058-.29.15-.22.29l-.139.196c-.439.417-.855.846-1.236 1.262a5.79 5.79 0 00-1.155 1.9 30.13 30.13 0 00-1.156 1.563 11.431 11.431 0 00-1.93 3.138.243.243 0 00.116.278c-.22.393-.427.787-.635 1.158a76.133 76.133 0 00-2.577 4.423 9.98 9.98 0 00-.543 1.158 14.338 14.338 0 00-1.444 6.3.197.197 0 000 .08c-.22 1.008-.439 2.015-.647 3.034a56.337 56.337 0 00-.381 2.467 24.81 24.81 0 00-.59 2.871c-.092.51-.184 1.031-.288 1.54-.139.753-.208 1.552-.3 2.316-.037.45-.115.896-.232 1.332a.29.29 0 000 .139.232.232 0 00.058.336 54.67 54.67 0 00-.474 2.316c-.057.3-.323.822.116 1.03a.508.508 0 00.185-.197v1.251c-.04.385-.04.773 0 1.158v3.705c0 .637.069 1.274.115 1.911v.776c-.046.86-.046 1.722 0 2.582-.23 1.309-.508 2.617-.716 3.937v.15a103.024 103.024 0 00-.901 3.614c-.278 1.204-.428 2.119-.601 3.196a47.974 47.974 0 00-.901 3.473 15.257 15.257 0 00-.37 3.289 26.23 26.23 0 00.3 5.871v.498c-.015 1.314.22 2.619.694 3.844a31.776 31.776 0 002.992 6.103 11.09 11.09 0 001.502 1.841c.225.275.48.524.763.741.566.521 1.155 1.019 1.721 1.552a17.713 17.713 0 002.311 1.818 20.874 20.874 0 002.068 1.528 28.935 28.935 0 008.088 3.184 67.531 67.531 0 008.203 1.622c.462.108.925.2 1.387.278a43.21 43.21 0 006.112.347c2.241 0 4.494.208 6.736.185 2.241-.023 4.332-.428 6.505-.625 3.928-.359 7.81-1.158 11.704-1.749.843 0 1.698 0 2.53-.162 1.155-.162 2.45-.359 3.674-.474a43.81 43.81 0 006.805-1.367l1.156-.139a76.098 76.098 0 008.654-1.1c1.999-.289 3.963-.81 5.985-1.054 1.848-.22 3.697-.567 5.546-.845 3.951-.591 7.868-1.447 11.842-1.899 1.294-.151 2.577-.405 3.859-.579h.255a18.054 18.054 0 002.091-.139l.936-.116h1.051a8.882 8.882 0 001.756 0c1.78 0 3.559.093 5.338.232 1.433.197 2.877.428 4.333.59 1.456.163 3.131.371 4.691.579 2.048.557 4.145.91 6.262 1.054 2.623.116 5.338.405 7.972.255a.21.21 0 00.197.104 6.296 6.296 0 001.155-.22h.162c.101-.034.198-.081.289-.139.25-.088.476-.235.658-.428.213-.099.39-.261.509-.463a.258.258 0 00.158-.261.253.253 0 00-.204-.226z" fill="#000"/><path d="M99.786 6.14c.339.843.226 3.162 0 4.006-.225.843-.902 1.687-1.24 1.687-.339 0-.339-2.003-.339-2.003s0-1.476-.225-2.32c-.226-.843-.564-2.214-1.241-2.425-.677-.21-1.918.106-2.482 1.054-.564.95-.79 2.742-1.128 4.007-.338 1.265-1.24 2.741-1.805 2.847-.564.105-.225-.95-.225-1.582 0-.632.366-2.32.79-3.9.422-1.582 1.015-2.848 2.143-3.796 1.128-.95 2.632-.844 3.948-.317 1.316.527 1.466 1.898 1.804 2.741z" fill="#fff"/><path d="M104.015 3.883c.477.691.905 2.812.905 3.622s-.381 1.716-.667 1.787c-.286.072-.738-1.739-.738-1.739s-.334-1.334-.715-2.05c-.382-.714-.977-1.882-1.597-1.93-.619-.047-1.68.954-1.942 1.93l-1.178-1.752c.14-.4.28-.484.523-.845.739-1.096 2.033-1.318 3.264-1.12 1.231.199 1.668 1.406 2.145 2.097zm13.966 14.448c.408.48 1.325.96 1.936.96s.814 0 1.018-.384c.204-.384-.102-1.055-.509-1.535-.408-.48-1.528-.959-2.445-1.15-.916-.192-1.833-.384-2.546 0-.713.383-1.12.959-1.324 1.63-.204.671-.102 1.439.102 2.11.204.671 1.222 1.535 2.139 1.822.916.288 2.546.288 2.648 0 .102-.287-1.019-.767-1.732-1.15-.713-.384-.916-1.152-.916-1.727 0-.576 0-1.055.407-1.247.408-.192.815.192 1.222.671zM1 107h4.5s-.495 2.983 0 6 3.23 7.388 6 9.745c2.77 2.357 10.136 5.468 13.5 6.222 3.364.754 13.63 1.533 16.5 1.533 2.87 0 10.323-.967 12.5-1.061 2.177-.095 9.428-.968 12-1.439 2.572-.471 10.944-1.529 15-2 4.056-.471 8.428-.811 11-1 2.572-.189 6.433-1.407 9.5-1.784s7.23-.933 10-1.216c2.77-.283 5.527-.283 8 0s4.829.529 7.5 1c2.671.471 4.636.934 8 1.5s5.632.225 8.106.696c2.473.471 3.463.66 2.572 1.037-.89.377-1.781 0-3.166 0s-3.858 0-7.222-.377c-3.364-.377-4.749-1.037-7.618-1.603-2.869-.565-7.717-1.037-10.488-1.037-2.77 0-6.826.189-9.399.472-2.572.283-4.254.848-7.42 1.508-3.166.66-6.628 1.131-9.794 1.509-3.166.377-2.968.094-8.113.848s-5.739 1.131-8.014 1.414c-2.276.283-3.958.849-7.222 1.131-3.265.283-7.42.943-10.982 1.415-3.562.471-7.42.942-10.785 1.319-3.363.378-8.508 0-10.685 0-2.176 0-3.66-.282-7.321-.848-3.66-.566-8.31-1.697-10.586-2.545-2.276-.849-2.671-1.132-4.75-2.263-2.077-1.131-3.264-2.734-5.144-4.431-1.88-1.697-2.968-3.394-3.858-4.902-.89-1.509-1.682-2.923-1.98-5.563C.836 109.641 1 107 1 107zm106.358-6.727c.628.866 2.061 1.636 1.524 1.925-.538.289-2.509 0-2.958 0-.448 0-.627-.385-1.165-.578-.537-.192-1.433-.385-2.15-.192-.717.192.358 1.155 0 1.444-.359.288-1.524 0-1.524 0h-3.046c-.718 0-.628 0-1.524-.193-.896-.192-1.882.385-3.047.193-1.165-.193-6.094-.674-6.094-.674s-1.613-1.251-1.344-2.792C86.3 97.866 88.181 97 89.973 97c1.793 0 5.198 1.829 8.514 1.251 3.315-.577 5.466 0 6.452.578.985.577 1.792.577 2.419 1.444zM80.25 17.641C81.75 16.86 87 15 87 15s-3.5 3.054-5.125 4.033c-1.625.978-4.5 3.173-6.375 4.543s-2.875 1.957-5.5 3.033c-2.625 1.076-4.5.891-7 .891s-6-.576-11.5-.576H39s10.5-2 15-2 8.75.293 12.125 0c3.375-.294 7.125-2.348 7.125-2.348s5.5-4.152 7-4.935zm36.828 55.944c.182.377-.454 1.415 0 1.415s.909-.849 1.181-1.415a9.281 9.281 0 00.636-1.698c.182-.66.091-1.226 0-1.792-.091-.566-.908-1.604-1.363-2.17-.454-.566-2.544-2.83-3.089-3.49-.545-.66-2.907-2.453-4.361-3.208-1.453-.754-2.18.472-2.907 2.17-.727 1.698.999 2.641 1.726 3.396.727.755 2.09 1.792 3.362 2.453 1.272.66 1.999.471 2.544 1.037.545.566.454 1.038.545 1.604.091.566.272 1.51.636 1.698.363.189.908-.377 1.09 0z" fill="#fff"/></svg>