<svg width="135" height="135" fill="none" xmlns="http://www.w3.org/2000/svg"><path d="M70.391 30.2s-1.577-2.318-2.891-2.318-2.891 2.317-2.891 2.317-1.315-1.545-2.366-1.545c-1.052 0-1.84.773-3.155 3.09-1.314 2.318-1.051 6.953 1.315 10.042-1.017.674-1.5 1.198-2.103 2.575l-1.052-1.287s-1.051-3.605-1.577-4.892c-.526-1.288-11.566-6.695-12.355-6.953-.788-.257-.788.515-.788.515-3.614-3.477-5.774-5.063-10.252-6.18.292-3.949.005-6-1.577-9.27 0 0 6.046-6.18 6.308-7.725.263-1.545-1.314-2.06-1.314-2.06s1.315-1.802 1.052-2.317C36.482 3.677 32.802.33 32.802.33S31.75-.185 31.224.072c-.525.258 0 1.288 0 1.288s1.907 1.476 2.366 2.832c.229.675.263 1.803.263 1.803-1.422 1.041-1.97 1.856-2.629 3.604 0 0-4.6 7.468-3.417 14.42 1.183 6.953 12.355 10.043 12.355 10.043s-.789 1.544 0 1.802c.788.258 11.829 3.863 12.092 4.378.263.515.526 4.12 1.051 4.892.526.772 1.84 2.06 1.84 2.06-2.71 2.354-3.586 3.847-4.468 6.695 0 0-3.943.257-5.52 0-1.578-.258-5.784-1.288-5.784-1.288-1.92-.317-2.381.066-2.891 1.03-4.347-.62-6.89-.32-11.566 1.03-1.717-.767-2.702-.818-4.469-.772-1.397-1.094-1.944-1.184-2.892-1.288l-1.051.515s-3.417-2.832-3.943-3.347c-.526-.515-.789 0-.789 0s-2.103-2.575-3.154-2.575c-1.052 0-2.629.772-2.629.772s-.525.258-.525.773 1.314.515 1.314.515h1.84l1.314 2.317s4.469 4.12 4.995 4.12c.526 0 3.943 2.06 5.52 2.575 1.577.515 9.989-.515 9.989-.515s0 1.03.788 1.288c.79.257 4.732-.773 4.732-.773s6.572-.772 7.097-.515c0 1.288 5.784 0 5.784 0l-1.315 4.893s-11.566 3.09-11.04 4.892l-.126.04v.001c-1.759.574-7.782 2.54-11.44 4.079-1.123.605-1.44 1.02-1.84 1.802 0 0-4.47-2.317-5.52-2.317-1.052 0-1.84.515-1.84.515-1.615-1.335-2.601-1.98-4.995-2.318 0 0-2.366-2.317-4.732-3.09-2.365-.772-3.68-.772-4.731-.772-1.052 0-1.577 1.545-1.052 1.545h1.84c1.63.082 2.373.37 3.418 1.287.686 2.143 1.452 3.04 3.154 4.378 1.68 1.344 2.87 1.818 5.52 2.06l2.892 2.317c3.342.8 4.527.271 6.571-.772.842.736 1.305.96 2.103.772 3.962-.678 5.956-2.279 9.463-5.407 0 0 1.052 1.287 1.84 1.287.79 0 8.15-4.635 8.15-4.635s-1.578 5.665-2.103 7.468c-.526 1.802-.526 5.407-.526 5.407-2.465 2.77-3.835 4.344-5.52 8.498 0 0-6.572 7.725-6.572 8.24 0 .515 1.051 2.317 1.051 2.317-2.261 3.984-3.364 6.262-4.468 10.557-.237 4.004-.04 6.212 1.314 10.043 1.855 2.966 2.98 4.564 5.257 7.21 1.856 1.327 2.857 1.74 4.469 1.03l2.103 1.545v3.09s0 1.287 1.051 1.287c1.052 0 1.315-1.802 1.315-1.802.342-.971.36-1.689 0-3.348-1.053-1.718-2.16-2.176-4.305-2.832-1.303-2.337-2.328-3.554-5.158-5.408.199-2.83-.237-4.677-1.578-8.24 1.904-2.213 2.162-3.98 2.103-7.467.581.147.71-2.655.789-4.635 3.48-4.182 4.868-6.831 7.325-11.52l.035-.067s1.052 14.677 4.995 21.114c3.943 6.438 11.566 10.043 20.766 10.043 9.2 0 16.823-3.605 20.766-10.043 3.943-6.437 4.995-21.114 4.995-21.114l.035.068c2.457 4.688 3.845 7.337 7.325 11.519.079 1.98.208 4.782.789 4.635-.058 3.487.199 5.254 2.103 7.467-1.341 3.563-1.777 5.41-1.578 8.24-2.83 1.854-3.855 3.071-5.158 5.408-2.144.656-3.252 1.114-4.305 2.832-.36 1.659-.342 2.377 0 3.348 0 0 .263 1.802 1.315 1.802 1.051 0 1.051-1.287 1.051-1.287v-3.09l2.103-1.545c1.612.71 2.613.297 4.469-1.03 2.277-2.646 3.402-4.244 5.257-7.21 1.355-3.831 1.551-6.039 1.314-10.043-1.103-4.295-2.207-6.573-4.468-10.557 0 0 1.051-1.802 1.051-2.317 0-.515-6.571-8.24-6.571-8.24-1.686-4.154-3.056-5.728-5.52-8.498 0 0 0-3.605-.526-5.407a1113.75 1113.75 0 01-2.103-7.468s7.36 4.635 8.149 4.635c.788 0 1.84-1.287 1.84-1.287 3.507 3.128 5.501 4.73 9.463 5.407.798.188 1.261-.036 2.103-.772 2.044 1.043 3.229 1.573 6.571.772l2.892-2.317c2.65-.242 3.841-.716 5.52-2.06 1.702-1.338 2.468-2.235 3.154-4.378 1.045-.918 1.789-1.205 3.418-1.287h1.84c.525 0 0-1.545-1.052-1.545-1.051 0-2.366 0-4.731.773-2.366.772-4.732 3.09-4.732 3.09-2.394.337-3.38.982-4.994 2.317 0 0-.789-.515-1.84-.515-1.052 0-5.521 2.317-5.521 2.317-.401-.781-.717-1.197-1.84-1.802-3.658-1.54-9.682-3.505-11.44-4.079l-.126-.041c.526-1.802-11.04-4.892-11.04-4.892l-1.314-4.893s5.782 1.288 5.782 0c.526-.257 7.098.515 7.098.515s3.943 1.03 4.732.773c.788-.258.788-1.288.788-1.288s8.412 1.03 9.989.515 4.995-2.575 5.52-2.575c.526 0 4.995-4.12 4.995-4.12l1.314-2.317h1.84s1.314 0 1.314-.515-.525-.773-.525-.773-1.578-.772-2.629-.772-3.154 2.575-3.154 2.575-.263-.515-.789 0-3.943 3.347-3.943 3.347l-1.051-.515c-.948.105-1.495.194-2.892 1.288-1.767-.046-2.752.005-4.469.772-4.676-1.35-7.219-1.65-11.566-1.03-.51-.964-.97-1.347-2.891-1.03 0 0-4.206 1.03-5.783 1.288-1.578.257-5.52 0-5.52 0-.882-2.848-1.76-4.34-4.47-6.695 0 0 1.315-1.288 1.84-2.06.526-.773.79-4.377 1.052-4.892.263-.515 11.303-4.12 12.092-4.378.789-.258 0-1.802 0-1.802s11.172-3.09 12.355-10.043c1.183-6.952-3.417-14.42-3.417-14.42-.658-1.748-1.207-2.563-2.629-3.604 0 0 .034-1.128.263-1.803.459-1.356 2.366-2.832 2.366-2.832s.525-1.03 0-1.288c-.526-.257-1.578.258-1.578.258s-3.68 3.347-3.943 3.862c-.262.515 1.052 2.317 1.052 2.317s-1.577.515-1.314 2.06c.262 1.545 6.308 7.725 6.308 7.725-1.582 3.27-1.869 5.321-1.577 9.27-4.478 1.117-6.638 2.703-10.252 6.18 0 0 0-.772-.788-.515-.789.258-11.83 5.665-12.355 6.953-.526 1.287-1.577 4.892-1.577 4.892L76.7 44.36c-.603-1.377-1.086-1.9-2.103-2.575 2.366-3.09 2.629-7.724 1.315-10.042-1.315-2.317-2.103-3.09-3.155-3.09-1.051 0-2.366 1.545-2.366 1.545z" fill="#000"/><path d="M78 48.5C76.5 47 74 46 74 46s2.5 2 4 4.5 3 4.5 4.5 8S86 66.5 87 72s1.5 8 1.5 13-.5 12-1.5 16-5.5 11-9 13-11 3-16 2-9.5-5-10.5-7.5-3.5-7.5-4-11S46 89.5 46 87s1.5-10 2-15 1-8 1-8l-1.5 6c-1.5.5-3.5 6.5-2.5 11.5 0 0-2 5 0 8 .5 5.5 2 16 5.5 20.5s8 7.5 13 8 8.5.5 13.5-2 8-5 10-10.5 3-12 3-16c1.5-3-1-8-1-8C90.5 78 88 66 85 64c1-3.5-1-7.5-2.5-8 0-4-3-6-4.5-7.5zM60 35c.5-3 1.5-4 1.5-4s-.5 3.5 0 6 1 3 3 3.5 5.837 0 7.5-1c1.663-1 3.5-3.5 3.5-3.5s-.5 2-1 3.5-4 2.5-7 2.5-5 0-6-1-2-3-1.5-6z" fill="#fff"/></svg>