<svg width="156" height="130" fill="none" xmlns="http://www.w3.org/2000/svg"><path fill-rule="evenodd" clip-rule="evenodd" d="M14.54 24.978a16.244 16.244 0 002.45 6.072c3.047 4.174 2.79 6.372 9.233 8.348 6.147 1.898 1.68 0 6.052 2.782 4.914 1.938 8.895.65 14.201 1.873 3.954.91 6.431-3.368 11.17-3.303-.949 3.185-2.832 6.04-5.425 8.223a18.288 18.288 0 01-9.197 4.09 7.193 7.193 0 00-2.586 1.002c-2.274 1.521-.825 2.6-6.281 4.29-3.033.924-5.077.3-6.932 1.964-.84.741.203 0-.812.936a5.824 5.824 0 01-2.938 1.197c-1.53.312-4.59.507-6.24.897-2.492.598-9.004 5.07-17.235 5.2v1.73c14.892 3.329 7.365 1.21 17.004-.156 3.06-.43 4.44.845 7.866-1.222 5.198-3.12 2.856-3.017 6.769-2.6 3.83-.599 6.593-3.212 8.705-4.877 2.626-2.041 2.057-.442 5.185-1.86 2.315-1.065 1.868-1.884 4.806-2.6-2.329 12.43-13.051 14.602-13.796 22.04a18.765 18.765 0 01-2.937 9.297c-3.9 6.163-1.016 3.614-.785 8.451.121 2.6-1.354 7.516-1.652 10.402-.339 3.173-.244 2.601 1.07 4.499l5.875 12.639 2.383 2.977c1.204 1.509 1.435 2.003 3.695 2.185 0-2.601-.947-8.166-1.895-9.752a30.309 30.309 0 00-1.814-5.643c-1.476-3.537-.582-2.458-.514-5.825.08-4.356-2.546-9.102-.894-13.003 2.383-5.604 1.178-7.203 2.532-12.547.893-3.46 1.029-.078 4.44-7.126l2.072-2.431a46.806 46.806 0 002.044 18.463 36.573 36.573 0 005.415 10.298c1.354 1.678 1.72 1.626 2.383 3.446 9.937 6.41 17.694 10.324 31.002 5.097 4.13-1.625 5.145-2.86 8.705-5.097 2.423-3.667 5.497-5.864 7.717-13.002a57.473 57.473 0 002.437-18.958c1.827.377 1.123.325 2.938 4.2 1.543 3.302 2.599 2.067 3.438 4.72 1.354 4.42.569 8.061 2.627 13.002 1.787 4.278-1.029 8.543-.853 12.886.135 3.666 1.029 2.483-.582 6.384-.731 1.781-1.192 4.33-2.451 5.526-.081 3.615-1.706 6.202-1.787 9.908a5.05 5.05 0 002.113-.679 4.83 4.83 0 001.583-1.505c.934-1.119 1.936-2.471 2.708-3.55 1.353-2.783 2.789-4.434 4.061-7.724a23.098 23.098 0 011.611-4.239c3.574-5.825.677-5.487 0-14.523-.474-5.93 3.303-2.47-.568-9.22-6.377-11.103.121-9.491-7.352-16.474-3.56-3.328-8.42-8.451-9.652-15.148 2.057.585 2.87 1.6 4.386 2.419 2.477 1.3 3.087.403 5.253 1.794 2.707 1.756 4.454 4.37 9.043 5.201 4.062-.104 4.739 1.457 7.162 2.848 3.831 2.184 5.131.494 7.906 1.066 2.776.572 4.752 1.69 8.259 1.82 4.169.157 5.415-1.092 8.339-1.742v-1.73c-7.744-.168-15.42-4.745-16.76-5.2-1.936-.56-4.901-.637-6.769-1.014-4.874-1.028-2.288-1.21-4.468-2.601-2.992-1.924-7.635-.208-11.074-4.29-1.598-1.912-.081-1.158-4.603-2.744-3.508-.53-6.772-2.056-9.368-4.382a31.87 31.87 0 01-4.603-7.568c4.386-.22 7.256 3.901 10.735 3.38 7.284-1.156 7.189-.52 13.417-1.3 6.62-4.94 8.515-2.47 12.739-6.228 2.383-2.106.514-1.3 2.626-4.382.312-.455.447-.533 1.016-1.3a11.448 11.448 0 002.707-6.501l.095-3.342a13.655 13.655 0 00-4.901 3.901c-3.073 3.199-9.612 10.571-14.377 11.468-8.299 1.535-8.705 3.55-13.538 1.131-4.508-2.262-10.086-1.755-15.068-2.132l-1.936-3.16c4.535-.455 8.299-.494 12.766-.845 3.48-.26 1.462-.975 4.793-1.716 7.838-1.703 10.83-.26 12.699-6.748.988-3.42 2.924-6.06 3.208-9.492C121.356 9.439 113.72 1.846 107.628 0c.352 6.098 10.357 13.9 10.398 16.331.203 10.038-15.028 8.803-17.6 9.102-7.933.988-13.633 8.023-13.376-.403a6.726 6.726 0 00-.406-3.303 17.924 17.924 0 01-1.124-6.982c-.257-2.718-3.249-8.595-4.968-9.7-2.302-1.482-1.611 2.067-1.611 4.538 0 3.238-.596 3.628-.596 6.878-2.856-4.317.623-12.768-2.504-11.598-1.747.65-5.05 7.23-5.253 9.882-.068 6.332-2.166 6.878-1.07 13.224-3.966 1.417-2.396 1.586-6.958-.352a35.418 35.418 0 00-7.352-2.223c-2.07-.325-17.423.91-17.152-9.102 0-1.95 2.26-3.341 3.777-5.045C43.349 9.544 48.304 3.134 48.209.04c-4.454 1.014-14.743 10.129-17.342 13.562.19 4.109 2.18 6.059 3.195 9.856 1.72 6.358 6.769 4.694 13.064 6.41 2.952.793.907 1.482 4.874 1.612 4.13.102 8.25.41 12.347.924l-2.004 2.977c-5.889.442-10.262-.312-15.528 2.328-4.305 2.145-6.674-.26-10.005-1.002-1.963-.429-2.03 0-3.71-.442-1.678-.442-10.004-7.034-10.018-7.034-2.707-2.926-4.67-6.736-8.8-8.218l.258 3.966z" fill="#000"/><path d="M73.071 12.053C73.568 10.947 75.556 8 75.556 8s-1.988 3.684-1.491 4.79c.497 1.105-.994 6.263-.497 7.736.497 1.474 9.438 0 9.438-.736 0-.737-1.989-4.053-.994-5.158.994-1.106 0-4.79 0-4.79s.994 1.105 1.49 2.58c.498 1.473-.993 2.946-.993 3.683 0 .737 1.491 1.842 1.491 2.58 0 .736 0 1.841-.497 2.21-.497.368-.994.737-2.485.737-1.491 0-2.977.368-4.965.368s-2.485 0-3.48-.368c-.993-.369-.496-2.21.001-3.685.497-1.473.497-2.579.497-2.947 0-.368-.497-1.842 0-2.947zM65 44.621c0-2.477.328-5.258 1.5-7.736 1.172-2.477 2.511-5.642 4.5-7.129 1.989-1.486 5 0 11-.756-2.5 1.242-6.766.314-9.5 2.296-2.734 1.982-5.61 8.08-6 10.557-.39 2.478-.281 6.217.5 8.695.781 2.477 4.094 5.093 8 5.589 3.906.495 6.016-.615 7.578-1.11 1.563-.496 5.078-5.45 5.469-7.928.39-2.478 0-5.45-.781-8.424-.782-2.973-2.344-6.937-2.344-6.937l2.344 3.469S90 43.135 90 45.612c0 2.478-2.344 6.937-3.516 8.424C85.313 55.522 82.188 58 78.672 58s-7.067-.496-10.156-2.478C65.426 53.54 65 47.1 65 44.622z" fill="#fff"/><path d="M57 51c1.5-3 5-10.5 5-10.5s-4 14-5.5 19.5-3 14.5-2.5 17.5S56 91 58 95s7.5 11 14 11.5 12.5 0 16-2 10-6.5 12.5-13S103 81 103 78s0-8.5-.5-13-1-3.5-2.5-11.188C98.5 46.126 97 43.5 97 43.5s1 .5 3 4.5 3.5 9 3.5 9 2 10 2 15.5-.5 10-1 13-2 7-3.5 10-6 7.5-8.5 9.5-9 4-14.5 4.5-8.5-1-12-3-6-4-8-7-3.5-10-3.5-10-2-12.5-2-16 .5-8 1-10.5 2-9 3.5-12z" fill="#fff"/></svg>