<svg width="121" height="135" fill="none" xmlns="http://www.w3.org/2000/svg"><path fill-rule="evenodd" clip-rule="evenodd" d="M117.153 67.027c-.573-.576-1.783-.524-2.942-.498-1.028.655-2.473.157-3.905.524-.39.105-.729.472-1.106.616-.729.19-1.442.436-2.135.734-.182.157-.13.537-.299.72-1.159.472-1.731 1.533-2.525 2.359 0-.603-1.302-.616-1.836-.511-.533.105-.859.55-1.21.72a29.618 29.618 0 00-5.376 2.791c-1.575 1.192-2.98 2.332-4.165 3.433a.457.457 0 01-.182.17l.182-.17c.111-.168.19-.354.234-.55-.742.366-1.302 1.703-2.33 1.952a14.12 14.12 0 01-1.94-.092c-3.449.183-7.197 1.677-11.154 1.376-1.757-.118-3.71-.485-5.207-.485a2.788 2.788 0 00-1.393-1.077 2.769 2.769 0 00-1.757-.024 9.692 9.692 0 01-.416-1.637c2.382-.564 5.206 0 7.406-.236a14.807 14.807 0 004.764-1.86 15.896 15.896 0 004.243-5.137c.13-.458-.494-.419-.208-.707a28.857 28.857 0 001.25-10.888c-.105-2.096-.703-4.088-.847-6.027-.208-3.026 1.068-4.992 1.185-7.77 0-.288-.442-.17-.416-.51-.3-1.664-1.393-2.843-1.302-4.586.117-.595.287-1.178.507-1.742.248-1.114.248-2.202.391-3.368a13.054 13.054 0 012.603-2.476.684.684 0 000 .72c.56-.222.586-.969.807-1.532 1.406-.511 1.172-2.228 1.406-3.8a61.917 61.917 0 011.783-7.258c.651-2.332 1.302-4.77 2.109-6.958 1.12-3.118 3.176-5.96 4.62-9.014.717-1.506 1.914-3.262.795-4.192-2.07-.302-2.72 1.31-3.54 2.62a68.227 68.227 0 00-4.621 10.233 63.655 63.655 0 00-3.476 16.272 6.683 6.683 0 01-2.33 1.442 8.108 8.108 0 00-.221-2.346c.52-.68 1.21-2.45.495-3.38-.482 0-.612.393-1.107.42-.716.799-.143 1.69-.195 2.554-.078 1.088-1.067 2.201-.69 3.682a69.653 69.653 0 00-18.223 12.145c-.143-1.847-1.302-2.62-2.043-3.93a3.881 3.881 0 00-1.42.21 2.36 2.36 0 00-.103 1.31 1.167 1.167 0 011.004.715 1.187 1.187 0 01-.184 1.224c-.807-.34-1.627-1.01-2.604-.813-.729.158-.924 1.01-1.523.93-.09-.51-.377-1.31-.104-1.834a2.346 2.346 0 001.016-.314c-.091-.42.156-.524.09-.917-1.835-1.035-3.579 1.127-3.735 3.079-4.699-3.852-12.144-4.9-17.195-8.399.469-1.637-.403-3.236-.325-4.69 0-1.022.898-2.005.39-2.87a60.717 60.717 0 00-.91 1.848c-.43-.328-.352-1.153-1.12-1.127-1.302 1.206.716 2.398.924 3.17.273.97-.182 1.861 0 3.158-1.145-.353-2.603-1.742-3.45-1.401a14.503 14.503 0 01-.507-3.826c-.416-7.508-2.798-14.229-4.66-20.518a19.008 19.008 0 01-1.3-2.344c.143-.184.39-.288.403-.603-.755-.288-1.106-2.49-2.239-2.555-.546 0-.963.55-1.301.72 0 4.98 1.94 8.57 3.397 12.356 1.449 3.9 2.657 7.886 3.619 11.936.364 1.48 1.132 2.935 1.301 4.389.17 1.454.43 1.428 1.224 2.45.338.42.533.983.82 1.31.638.747 1.861 1.441 2.043 2.136a4.39 4.39 0 01-.104 1.022c-.117 2.424.235 4.035-.885 5.32.182 2.698 1.484 4.782 1.302 7.769-.143 1.965-.703 3.93-.781 6.027a25.917 25.917 0 001.367 10.822c-.092.249-.404.275-.3.72a17.603 17.603 0 004.282 4.992 13.468 13.468 0 004.882 1.808c2.056.21 4.92-.432 6.911.276-.182.471-.117 1.166-.403 1.532-1.888-.59-2.07 1.127-3.345 1.245-1.51.144-3.06.301-4.66.432-4.517.341-8.995-1.559-13.108-1.166a7.374 7.374 0 01-2.043-1.926c-.573.066.377.721.104.813a26.756 26.756 0 00-4.283-3.76 30.84 30.84 0 00-5.492-2.62c-.794-.38-2.33-1.311-3.046-.184a5.427 5.427 0 00-2.604-2.346c.066-.366-.117-.498-.208-.707a11.22 11.22 0 00-2.239-.708c-.39-.157-.598-.498-1.015-.615-.416-.118-.963.078-1.614 0-.234 0-.612-.302-.924-.302-.313 0-.547.236-.703.21-.156-.026-.43-.367-.716-.406a4.388 4.388 0 00-2.942.524c-.143-1.926-5.206-.564-3.449 1.31.443.459 1.614.223 2.447.288.469 0 1.302.564 1.302-.105.52-.642-.846-.537-.508-1.021 1.041.5 2.218.638 3.345.393 1.302.406 2.604 1.532 4.166 1.008.684.335 1.399.603 2.134.8.534.786 1.497 1.153 1.745 2.24.885.157 1.067 1.035 1.522 1.625 0 2.712 4.075 4.192 6.222 4.978 2.695.983 5.623 1.31 6.925 3.341.078.354-.417.131-.313.511.938-.117.664.983 1.133 1.31.443.066.56-.17 1.002-.104 5.324 2.542 12.379-.118 18.692-.092.416.629 2.004.72 2.603.498-1.145.629-2.746.8-3.45 1.86.3.406-.416 1.533.118 2.24-3.567 1.809-5.87 5.438-9.203 7.613-.95.616-2.03 1.074-2.942 1.756a36.257 36.257 0 00-3.436 3.38c-1.145 1.166-2.681 2.372-2.72 4.206 0 .432.546.327.611.707-1.457 1.481-3.071 2.752-4.646 4.219-1.575 1.468-2.604 3.394-4.244 4.612a28.07 28.07 0 00-2.733 2.162 22.546 22.546 0 01-3.228 3.184 5.471 5.471 0 00-.195 1.533 5.58 5.58 0 00-1.224.419 3.06 3.06 0 00-.091 1.127c-.403.55-1.054.366-1.523.72-.872.655-.963 2.254-2.018 2.778a2.464 2.464 0 01-.977 1.975 2.413 2.413 0 01-2.16.383c-.169.708-1.04.747-1.51 1.127a6.548 6.548 0 00-1.47 2.122c.234.642 1.301.354 1.822.197a4.852 4.852 0 000 2.45c.247-.93.742-1.638 1.002-2.62.196.144.651.327.912.091a3.62 3.62 0 001.015-2.148c1.054-.328 1.21-1.311 2.017-2.162 1.302-1.31 3.528-2.018 3.736-4.101.52-.066.677-.472.911-.826.234.079.573.328.807.105.716-.262.911-1.244 1.523-1.637.46-.24.933-.45 1.419-.629a12.344 12.344 0 003.527-2.883c1.406-1.572 3.124-2.62 4.452-4.101a36.771 36.771 0 003.033-5.018c1.002-.314.989-1.664 1.405-2.62 2.265 0 3.242-1.913 4.244-3.197.43-.524 1.12-.956 1.614-1.533.494-.576.82-1.31 1.301-1.847 1.445-1.507 3.111-2.83 4.452-4.31a24.63 24.63 0 013.332-3.394 19.531 19.531 0 013.033-2.044c.156 0 .612.196.82.21 2.109.091 2.903-1.625 4.048-2.372.742.131 1.198.563 2.03.603-.325 1.533.6 2.62.938 3.93-.898.406-1.692.144-2.747.42-.747.34-1.458.757-2.121 1.244-.725.357-1.406.797-2.03 1.31a17.543 17.543 0 00-5.832 11.465c-.495 9.682 2.733 15.303 8.317 18.866a4.127 4.127 0 001.42 1.429c0-.289-.183-.354.103-.21 2.473 1.035 2.929 4.389 6.417 4.061 2.604-.248 4.088-1.965 5.975-3.393 4.321-3.302 8.187-8.267 8.057-15.067a18.82 18.82 0 00.273-6.04 17.106 17.106 0 00-2.474-7.413 16.976 16.976 0 00-5.505-5.519c-.182-.262.104-.498-.208-.72a17.088 17.088 0 00-5.688-.59c.533-1.368.833-2.816.885-4.284.36-.081.703-.223 1.015-.42 1.146 1.416 2.604 3.538 5.298 2.739a62.643 62.643 0 015.597 4.572c1.705 1.848 3.631 3.512 5.31 5.385.391.433.625 1.048 1.029 1.533.403.485 1.302 1.114 1.731 1.73 1.094 1.388 2.083 3.039 4.374 3.039a3.487 3.487 0 001.301 2.621 51.609 51.609 0 003.072 4.887c1.302 1.48 3.072 2.528 4.478 4.074a10.786 10.786 0 005.102 3.446c.521.524.69 1.415 1.523 1.638.195.288.534-.144.807-.118 0 .603.547.616.82.917 0 1.494 1.302 1.717 2.044 2.45.169.171.143.472.312.616.43.367 1.015.616 1.419 1.009.742.721 1.132 1.651 2.043 2.135.313.747.365 1.756 1.133 2.044.273.38.729-.275.911 0 .234.859.58 1.683 1.028 2.45v-2.45c.742.328 1.627.262 1.731-.314 0-.288-1.028-1.454-1.64-1.939-.611-.485-1.575-.537-1.536-1.114a2.583 2.583 0 01-1.779-.148 2.608 2.608 0 01-1.266-1.267c-.091-.275 0-.629-.105-.917-.104-.288-.78-.642-1.119-1.127-.338-.484-.482-1.31-.924-1.624-.443-.315-1.159-.092-1.536-.813a2.302 2.302 0 00-.104-1.022c-.273-.301-.989-.157-1.224-.498.078-.628-.169-.93-.208-1.428-2.252-1.546-3.475-4.14-6.105-5.24-2.603-3.354-5.935-5.883-8.877-8.844 1.784-1.389-1.301-3.931-2.16-4.796a35.744 35.744 0 00-3.463-3.354c-1.223-.904-2.603-1.467-3.775-2.437a103.852 103.852 0 00-8.46-6.904c.572-.734-.248-1.756.09-2.254-.806-.956-2.446-1.074-3.461-1.821 1.223.747 2.004-.262 2.746-.42 2.785-.615 6.716.84 10.413 1.075 1.45.131 2.91.131 4.36 0 1.927-.236 3.203-1.402 4.869-1.048.468-.34.182-1.441 1.106-1.31.091-.407-.442-.17-.3-.616 2.851-3.053 9.893-3.21 12.561-6.551a2.17 2.17 0 00.495-1.834c.534-.485.625-1.428 1.51-1.546.612-1.743 2.187-2.503 3.905-3.092 1.562.68 2.707-.839 4.165-1.035.625-.08 1.185.157 1.718.091.534-.065.911-.419 1.536-.419.196.314-1.054.38-.507 1.035a8.043 8.043 0 003.748-.328c1.406-2.227-3.163-3.393-3.579-1.467zM67.3 44.48c3.788-4.049 10.947-4.743 15.281-8.255a16.409 16.409 0 001.302 8.28c-.43 1.625-1.302 2.765-1.601 4.6a7.838 7.838 0 01-.911.825 52.359 52.359 0 001.302 17.674c-.196.472-.716.55-1.302.918-.453.372-.926.718-1.419 1.035a26.78 26.78 0 01-3.033.629c-3.007.694-6.326 1.1-8.63 2.293.17-.354.235-.787.404-1.127-.195-4.258-1.237-8.36-4.816-9.486.742-.105.703-.996 1.21-1.31.6 0 2.421.34 3.15-.118.365-.157 0 .354.3.314.377-.38.624-.878 1.015-1.31.535-3.187.45-6.449-.247-9.604-.534-2.03-1.302-3.93-3.072-4.48.286-.302.455-.813 1.067-.878zM52.201 71.993c-4.06-1.979-10.725-1.31-13.628-4.442a51.834 51.834 0 001.133-17.57 7.719 7.719 0 00-.925-.93 24.27 24.27 0 00-1.64-4.48 16.875 16.875 0 001.198-4.914c4.699 2.306 11.324 2.62 15.45 5.542a10.825 10.825 0 00-2.213 1.756c.078.288.144.118.404.105-1.549 3.197-2.603 10.481-.143 13.482.624 0 1.301.602 2.134.707a7.634 7.634 0 002.435-.314 1.699 1.699 0 00.312 1.31c-.57.422-1.23.704-1.927.825-.299.302.26.17.209.511-2.695.93-3.437 4.73-2.799 8.36v.052z" fill="#000"/><path d="M28.5 12c-.5-.5-2.5-7-3-7S25 6 25 6l3 9 3 7.5s-2-10-2.5-10.5zm65.49-4.712c.566-.423 3.483-6.566 3.978-6.494.495.072.35 1.061.35 1.061l-4.267 8.473L90 17.317s3.422-9.607 3.99-10.03zM22.207 74s-3.5-2-4-2 0 1 .5 1.5 4 2.5 5.5 3.5 5 2.5 5 2-2.5-2-2.5-2l-4.5-3zm76.465 0s3.501-2 4.001-2c.5 0 0 1-.5 1.5s-4 2.5-5.5 3.5-5 2.5-5 2 2.5-2 2.5-2l4.5-3zm-63.029 6.232s-3.71-.25-4.143 0c-.433.25 1.317.835 2 1.018.683.183 4.2 1.134 6 1.25 1.799.116 5.58-.335 5.33-.768s-3.165-.482-3.165-.482l-6.022-1.018zm-12.015 35.21s-2.531 2.725-2.61 3.218c-.078.494 1.479-.497 2.05-.912.573-.415 3.527-2.549 4.75-3.874 1.224-1.324 3.255-4.545 2.76-4.623-.493-.079-2.367 2.154-2.367 2.154l-4.583 4.037zm74.421 0s2.531 2.725 2.609 3.218c.079.494-1.478-.497-2.05-.912-.572-.415-3.527-2.549-4.75-3.874-1.223-1.324-3.254-4.545-2.76-4.623.494-.079 2.368 2.154 2.368 2.154l4.583 4.037zm-12.813-35.21s3.71-.25 4.144 0c.433.25-1.317.835-2 1.018-.683.183-4.201 1.134-6 1.25-1.8.116-5.58-.335-5.33-.768s3.165-.482 3.165-.482l6.021-1.018zM70.5 97c-1.5-1.5-6.6-3.5-7-3.5 0 0 2.5 1.5 4.5 3s3 3 4 5 1.5 4.5 2 9-1 5.5-2 7-2 4-4 6-3.5 3-5 3.5-3-2-4-3-4.5-3.5-6.5-5.5-4-7-4-7-.5 2.5 1 5.5 3.5 4.5 4.5 5.5 5 4 5.5 4.5 1.5 3 3.5 2.5 3.5-2.5 4-3v-.001c.505-.504 5.001-5.001 7-8.499 2-3.5 2-4.5 1.5-7s-1-5.5-1.5-8-2-4.5-3.5-6zm-18-46.5c.5-1.5 1.5-3 1.5-3s-.5 2-.5 2.75v4.25c0 1.5-.5 3 2 3.5s4.5 0 7 0 3.5-.5 4-1.5 1.5-5 1.5-5v4c0 2.5-2 3.5-3 3.5h-8s-2 0-3.5-.5-1.5-3-1.5-3 0-3.5.5-5z" fill="#fff"/></svg>