<svg width="97" height="135" fill="none" xmlns="http://www.w3.org/2000/svg"><path d="M15.208 87.324l18.261-24.968c-.92-1.674-10.588-2.892-13.197-4.72-.247 6.756-1.007 10.494-3.683 17.052-.985 4.954-2.345 7.532-6.445 11.723-1.595 3-2.68 4.402-5.064 6.242 0 0-.921 1.065-3.376 1.065-2.456 0-1.535-1.827-1.535-1.827s.767 1.523 2.609 0c1.841-1.522 3.588-4.234 6.138-6.546l2.149-4.263c1.577-3.092 2.38-4.333 3.836-6.698.236-4.401.541-6.99 1.688-12.028 0 0 1.535-8.525 2.609-8.982 1.074-.457 5.064 1.066 5.064 1.066l6.291 2.74s2.302.457 4.45.457c-.197-1.598-.355-2.459-.46-3.959 0 0-2.915-.913-5.217-3.197-2.302-2.283-1.323-13.2-2.456-14.158-1.132-.959-4.476-4.486-5.064-7.003-.587-2.518-1.841-3.502-1.841-3.502s-.92-.61-1.535-1.98c-.613-1.37-.306-3.044-.306-3.044-.103-1.253.167-1.952.92-3.197.791-.831 1.491-.807 2.711-.763l.051.002s-.92.152-1.38 1.37c-.461 1.218 0 3.35 0 3.35 1.669 2.372 2.472 3.75 3.375 6.393 2.584 2.125 3.928 3.382 4.604 6.699 0 0 1.381.761 2.302 1.675.92.913.46 4.415.46 4.415.797 3.62.46 4.676.46 7.307 1.938-.189 2.847-.151 3.99.305.47-3.326 1.131-4.767 3.07-6.547 0 0-1.995.914-3.07-.456-1.074-1.37 0-3.654 0-3.654s-1.534 0-1.534-3.654 3.99-7.308 5.218-7.308c1.227 0 2.915-.304 2.915-.304l-3.53-2.131s-3.375-1.98-4.143-2.74c-.767-.762-1.534-2.132-2.301-3.35-.768-1.218-3.837-4.72-3.837-4.72l-4.604-3.501s-4.143-2.74-5.37-3.35c-1.228-.609-.768-2.131.613-1.674 1.381.456 5.678 2.74 5.678 2.74s4.45 3.958 5.985 4.872c1.535.913 2.916 3.501 3.376 4.262.46.762 1.535 2.589 1.535 2.589l2.455 2.131 3.53 2.284 1.84 1.979h1.075s.614-1.98 3.683-1.98 2.609 1.98 2.609 1.98h1.227s2.302-3.502 3.53-4.872c1.227-1.37 3.376-4.11 3.376-4.11s.767-1.675.614-2.893c-.154-1.218 1.534-3.958 1.534-3.958s3.99-4.872 5.678-6.09c1.688-1.218 3.223-2.893 4.143-3.654.921-.761 1.842.457 1.075 1.218-.768.761-4.604 4.872-4.604 4.872s-3.99 3.35-4.757 6.242c-.767 2.892-3.07 5.48-3.683 6.85-.614 1.37-5.831 6.395-5.831 6.395v1.37s.92-.913 2.915-.457c1.995.457 5.831 4.415 5.831 7.917-.153 1.675-1.227 2.588-1.227 2.588.002 3.1-.176 4.66-3.376 4.567 2.053 2.255 2.735 3.613 2.915 6.242 1.048-.23 1.68-.326 3.07.305 0 0 .613-3.502.613-5.633 0-2.131 1.535-7.003 1.535-7.003 1.826-3.668 3.15-5.103 5.831-7.003 1.499-3.245 1.65-4.152 3.683-6.7 0 0 .921-2.587.46-3.349-.46-.76-1.84-1.826-1.84-1.826 1.563-.212 2.32.03 3.375 1.37l.007.047c.327 2.327.512 3.647-.62 6.043-2.415 5.213-3.804 8.102-8.134 11.418.614 2.892-1.227 13.093-2.302 14.767-1.074 1.675-5.37 3.197-5.37 3.197.19 1.774.203 2.604.153 3.959 2.9.86 4.297.304 6.599-.761 2.301-1.066 8.44-4.568 10.128-3.502 1.688 1.066 2.455 9.743 2.455 9.743 1.285 4.61 1.802 7.157 1.995 11.571 1.968 3.45 3.05 5.232 5.217 10.048 0 0 5.064 7.46 6.292 7.917 1.228.456 3.683 0 3.683 0-.976 1.262-1.815 1.584-3.683 1.674-3.7-1.547-5.599-3.011-8.44-7.46-3.55-5.355-5.07-8.569-6.752-14.767-1.995-5.329-1.995-13.55-2.762-13.854-.768-.305-4.45.913-4.45.913s-8.287 2.436-7.673 3.959c.613 1.522 17.34 21.161 18.568 23.293 1.227 2.131 0 6.09.614 6.698.614.61 6.598 5.329 9.514 10.049 2.916 4.719 3.836 19.334 4.45 23.293.614 3.958.614 6.698-1.227 7.916-1.842 1.218-4.911-1.674-4.911-1.674s-1.688-1.218-4.604-5.633c-2.915-4.415-11.662-19.335-13.504-26.034-1.841-6.699-3.069-10.048-3.99-10.048-.92 0 .921 5.633.921 5.633 1.626 5.181 2.39 7.999 3.07 12.636 0 0 2.608 9.439 5.984 13.55 1.074 1.066 1.688 3.654 1.688 3.654.757.601 1.473.698 3.069.609-.676.774-1.151 1.124-2.609 1.218-3.725-.904-4.693-3.134-6.291-7.308-4.295-9.784-4.655-12.667-6.139-18.878-2.705-7.504-3.701-11.87-4.603-19.944-1.186-3.342-1.52-5.254-1.995-8.678-.834-1.425-1.323-1.842-2.302-.761 0 0 2.302 2.588 2.302 4.415v.079c0 1.864 0 5.888-.614 7.533 2.274 3.247 2.576 5.085 2.609 8.373-.076 4.743-.439 6.84-2.61 7.917 1.36 3.2 1.387 5.001.615 8.221-.764 2.538-1.482 3.459-3.07 4.568 0 0 .921 3.653 0 6.546-.92 2.893-8.286 10.048-9.514 10.048-1.227 0-9.514-7.155-10.435-10.048-.92-2.893 0-6.546 0-6.546-1.505-1.159-2.148-2.436-2.762-4.568-.614-2.131-1.056-3.858 0-8.221 0 0-1.995-5.328-1.688-8.373.307-3.045 1.688-6.851 1.688-7.917V81.54s-1.074-.457-1.381.609c-.307 1.066 0 4.263-.307 5.48-.307 1.219-1.753 9.306-3.99 14.464-.814 4.752-1.416 7.284-3.069 11.266.08.93-3.42 10.715-4.604 11.266-1.074 1.827-2.302 4.872-4.296 5.481-1.995.609-3.837-1.827-3.837-1.827s1.995 1.065 3.223 0c.611-1.31 3.883-8.502 4.91-7.917 2.102-5.171 3.994-13.776 6.906-25.425.936-2.85.947-4.451.767-7.307l-7.366 17.355c-4.326 11.612-7.22 17.89-15.499 27.556 0 0-1.841 2.741-4.297 2.436-2.455-.304-1.841-4.11-1.841-4.11s-1.074-19.487 3.836-26.491c4.91-7.003 9.975-11.722 9.975-11.722l.614-5.329z" fill="#000"/><path d="M41 31.5V28l-3 1.5c-1 .5-2 1.5-2 3s.5 4 .5 4 1.5-1 2.5-1.5 2-2 2-3.5zm13.561-.244l-.56-3.454 3.2 1c1.068.332 2.215 1.16 2.456 2.64.24 1.48.148 4.028.148 4.028s-1.641-.746-2.709-1.08c-1.067-.333-2.294-1.653-2.535-3.134zM4.5 132c2 0 5-5.5 5-5.5S6 129 5 129s-.5-7-.5-10.812c0-3.813 2-9.188 2.5-10.688s3.5-4 5-6 6-5.5 6-6.5.5-4 1-5.5 1-4 1-4-2 1-2.5 2-1 5.5-1 6.5-8.5 8.5-10 11.5-3 6.5-3 8.5-1 10-.5 12.5-.5 5.5 1.5 5.5zm51-57c1-.5 3-2 3-2s-4 1-5.5 1.5-5.5.5-5.5.5-4 0-6-.5-5.5-2-5.5-2 4 3.5 7 4 4.5.5 6.5.5 5-1.5 6-2zm-11 40c-2.5-.5-5-1.5-5-1.5s1.5 2 3 3 3.5 1 6 1 4.5-.5 6-1.5 2.5-2.5 2.5-2.5-4 1.5-6.5 2-3.5 0-6-.5zm-2-12.5c-2-.5-5.5-1.5-5.5-1.5s1 1.5 2 2 4.5 1.5 5.5 1.5 2.5.5 5.5 0 5-1 6-1.5 3-2 3-2-3.5.5-5 1-5 1-6.5 1-3 0-5-.5zm-.5-15c-2-.5-5.5-2-5.5-2s2 2 4 3 4.5 1.5 7 1.5 6-.5 7.5-1.5 4-3 4-3L54.5 87c-1.5.5-3.5 1-5.5 1s-5 0-7-.5zm28-13L63 65s8 13 10 15 6 7.5 6 8.5.5 4 .5 6 1 2 2 3S87 102 88 103s2.5 2.5 3 6.5 2.5 11.5 2.5 14S95 132 95 132v-5.5c0-1.5-1.5-12-2-13.5s-1.5-6.5-2-8-1.5-3.5-3.5-4.5-6-5-6-5-1-2-1-3.5.5-3.5 0-4.5S78 84 78 84l-8-9.5z" fill="#fff"/></svg>