<svg width="130" height="130" fill="none" xmlns="http://www.w3.org/2000/svg"><path d="M50.056 4.268c.173-.511 28.637-2.556 28.637-2.556s-.345-1.533 0-1.703c.345-.17 28.809 2.214 28.809 2.214s0-1.192.69-1.533c.69-.34 13.111 5.282 15.526 8.178 2.415 2.896 6.901 6.474 6.211 11.585-.69 5.111-3.796 5.622-3.796 5.622l-1.552 3.067.862-2.726-1.207.34-3.795 12.778 2.415-12.437-.863.17-1.035 2.727.345-2.726h-.862l-3.278 12.266 1.552-12.266-1.552 1.533.69-1.704-2.07-.17-.863 1.022c.493 7.058-.312 10.758-3.795 16.867-.932 5.09-2.313 6.973-5.175 9.881 4.23.9 6.551 1.473 9.66 3.918.475.724.564 1.135.518 1.875 2.18 4.08 3.058 6.447 3.623 10.903.763 4.398 1.319 6.773 2.932 10.563 1.161 1.113 1.862 1.303 3.105 1.704l-2.242-.511 1.38 1.703c-1.352-.876-2.204-1.152-3.105-3.066-1.969-3.921-2.499-5.87-3.437-9.32l-.014-.05c-1.124-4.978-1.861-7.096-3.277-10.223-.637.647-.974.72-1.553.511l.173.852-.69-1.022c-1.362.091-2.026-.112-2.933-1.193l.345 1.193-1.035-1.533c-1.643-.451-2.56-.727-3.968-2.386v1.534l-.345-1.874-1.035-.852c-1.141 1.197-2.006 1.78-3.795 2.726 0 0 10.178 3.918 11.041 4.94.862 1.023 1.725 3.919 2.242 6.645.518 2.726 1.553 10.222 1.553 10.222l1.035 7.496c1.039 1.044 1.769 1.365 3.105 1.874l-2.243-.681 1.035 1.533c-1.002-.614-1.565-.996-2.587-2.896l-4.485-20.274-1.898.17.345 1.193-.863-1.533-2.415-1.023v1.363l-.69-1.703-3.795-2.897v1.534l-.863-2.556c-1.411-.723-2.151-1.511-3.45-3.066-.726-1.466-.772-2.452 0-4.6.442-2.399 1.21-3.396 2.933-4.941.273-1.57.589-2.505 1.897-4.43l-1.371-3.216c.057.507-3.087 9.848-4.321 11.905-1.263 2.103-7.073 9.03-7.073 9.03 2.839 4.346 4.236 6.833 5.52 11.585-.11 1.033-.268 1.512-.69 2.215 0 0 1.725 5.963 2.07 7.496.345 1.533-.69 1.703-.69 1.703s1.553 4.09 1.725 4.6c.173.511-.517 1.534-.517 1.534s1.725 9.54 1.552 10.903c-.172 1.363-.862 1.363-.862 1.363l-1.898 1.874 1.553-2.385v-.511l-1.898 1.704 1.898-2.556v-3.066l-1.38-7.156c-.892-.046-1.165-.564-1.553-1.704l-.69 1.534.69-2.385-.172-3.237c-1.148-.18-1.454-.834-1.553-2.726l-.69 1.703.345-2.555V79.06c-1.573-.509-2.181-.99-2.76-2.215-1.074-1.85-1.451-2.985-1.898-5.111l-.172-2.215-.69 1.533.344-2.214-.344-2.726c-.882.592-1.46.756-2.76.51 2.002 3.793 3.219 5.898 4.312 9.882 0 0 1.208 2.726 1.208 3.578 0 .852-1.035 2.044-1.035 2.044v3.408s1.207 3.918 1.38 4.77c.172.852-.69 1.533-.69 1.533s.862 3.578 1.035 4.6c.172 1.023-.69 1.704-.69 1.704.521 5.074.917 8.121.345 11.074-.593.945-.908 1.36-1.38 1.533l-1.553 1.363 1.553-2.044.517-.682-2.242 1.534 2.242-2.385c.66-2.961.006-5.926-.517-10.393-.956-.03-1.21-.521-1.38-1.874L86.11 97.8l.862-2.555.173-3.408c-1.032-.27-1.19-.967-1.207-2.555l-.863 1.704.863-2.726.172-4.6c-1.402-.693-1.88-1.27-2.588-2.385l-.517.851.345-1.874-.518-2.896-.517 1.193.345-2.386-.345-2.555-.863 1.704.69-2.726c-.414-2.464-.195-3.898.345-6.474 0 0-1.035-1.022-1.035-2.556 0-1.533.69-3.066 1.725-4.94 1.035-1.874 3.45-4.26 4.14-4.941.69-.682 1.726-3.237 1.726-3.237l-1.208-2.726-3.45 8.348s-3.968 6.474-5.693 8.518c-1.725 2.045-8.28 6.304-8.28 6.304.48.161 6.9 12.607 7.073 16.867-.08 1.022-1.036 1.533-1.036 1.533s1.898 9.03 1.898 9.71c0 .682-.862 1.705-.862 1.705s1.207 5.451 1.207 6.133c0 .681-1.035 1.192-1.035 1.192.388 5.455.796 8.511.172 13.971-.165 1.137-.303 1.686-.69 2.385l-2.76 2.896 1.898-2.726-2.07 1.193 2.587-2.556c.624-5.941.22-9.322-.478-15.176l-.04-.327c-.4-.237-.61-.405-.517-1.704l-.862 1.704.69-2.726-.173-4.43c-.858-.422-.97-1.146-1.207-2.385l-.69 1.874.69-3.237v-6.474c-1.364-.22-1.86-.797-2.415-2.385l-.69-2.896-.69 1.363.172-2.385c-.321-.722-.402-1.414-.517-2.726l-.518 1.362v-2.385c-.513-1.349-.612-2.193-.69-3.748l-.863 1.534.518-2.386-.518-3.577c-.935.812-1.542 1.028-2.76 1.022 2.527 6.342 3.764 9.984 5.52 16.696-.15 1.588-.488 2.012-1.207 2.555.36 4.121.587 6.7.862 9.882-.313.705-.567.894-1.035 1.192 0 0 1.035 6.304.69 6.986-.344.681-1.207.511-1.207.511.069 6.192.345 11.244-1.553 15.674-.862 1.022-1.38 1.363-1.38 1.363L63.857 130l2.07-2.726-2.07 1.193 2.588-2.385c.943-3.009 1.347-4.788 1.207-8.008v-7.326c-.48-.351-.596-.873-.69-2.044l-1.035 1.704 1.035-2.726.518-4.43c-.612-.764-.678-1.382-.69-2.555l-1.38 1.874 1.38-2.897.69-6.985c-1.3-.133-1.802-.423-2.07-1.533l-.69-3.919-1.035 1.534.69-2.385a91.404 91.404 0 01-.69-2.726l-.863 2.13.863-3.493c-.404-1.248-.45-2.091-.345-3.748l-1.208 1.874 1.208-3.067s-.518-4.6-.518-5.622c0-1.022-.345-1.533 0-2.215.345-.681 2.07-4.94 5.175-8.007 3.106-3.067 6.556-5.622 6.556-5.622l-2.588-4.43c-1.898 2.385-4.485 3.919-6.038 4.6-3.623 4.26-11.385 8.518-17.94 9.37-3.796.67-9.316.852-9.489.511-.172-.34.863-1.192.863-1.192s-15.009-2.385-17.251-4.43c.172-.34 1.035-.681 1.035-.681s-9.143-4.26-11.904-7.156c0-.34 1.898-.51 1.898-.51-3.426-3.501-5.648-5.53-9.833-9.2 0 0-2.933-.512-3.278-3.238-.345-2.726 2.588-7.496 2.588-7.496s-.69.511-.863 0c-.172-.511 7.936-7.326 7.936-7.326s-1.898-.51-1.725-1.192c.172-.682 18.113-9.541 18.113-9.541-.402-.454-1.138-1.397-.862-1.533.276-.137 17.115-4.098 25.5-6.062 0 0-.831-1.605-.659-2.116z" fill="#000"/><path d="M15.46 27c-3.499.07-10.419 4.207-10.419 4.207s7.95-2.658 11.949-2.737c3.999-.079 9.008.322 9.008.322S18.96 26.932 15.46 27zM39.5 14c-4-.5-11 0-11 0s5 1 9.5 1.5 4 .5 8 2.5l8 4s-4-4-6.5-5.5-4-2-8-2.5zM92 9c-3.5-2.5-11.5-5.5-11.5-5.5s4.5 3.5 8 6 9 8 9 8-2-6-5.5-8.5zm-30.5-.5c-2-.5-9-1.5-9-1.5s11 4 13 5l8.5 6s-3.5-5-5.5-6.5-5-2.5-7-3zM28 48.5c-3.5 3-12.5 3-12.5 3s3-1 7.5-3 11-7 11-7-2.5 4-6 7zM48 60c-2 1.5-7 3.5-7 3.5s5-4.5 7-8 5-7 5-7-3 10-5 11.5zm72.5-51c-4-2.5-11-5.5-11-5.5s.5 2 3 3.5 8 5.5 9.5 6.5 2.5 2 3 5-2.5 6-2.5 6 3-1 4-2 1.5-3.5 1-5.5-3-5.5-7-8z" fill="#fff"/></svg>