<svg width="135" height="135" fill="none" xmlns="http://www.w3.org/2000/svg"><path d="M106.835 66.522a39.147 39.147 0 01-13.67 29.8c-6.78 5.818-15.573 9.33-25.18 9.33-21.455 0-38.848-17.52-38.848-39.13 0-21.611 17.393-39.13 38.849-39.13 21.455 0 38.849 17.519 38.849 39.13zM78.67 11.25c0 6.213-5.002 11.25-11.17 11.25-6.169 0-11.17-5.037-11.17-11.25S61.333 0 67.5 0s11.17 5.037 11.17 11.25z" fill="#000"/><path d="M117.518 27.88c0 6.214-5.001 11.25-11.169 11.25-6.169 0-11.17-5.036-11.17-11.25 0-6.213 5.001-11.25 11.17-11.25 6.168 0 11.169 5.037 11.169 11.25zm-100.036 0c0 6.214 5 11.25 11.17 11.25 6.168 0 11.168-5.036 11.168-11.25 0-6.213-5-11.25-11.169-11.25-6.168 0-11.169 5.037-11.169 11.25zM135 67.01c0 6.214-5.001 11.25-11.169 11.25-6.169 0-11.169-5.036-11.169-11.25 0-6.212 5-11.25 11.169-11.25 6.168 0 11.169 5.038 11.169 11.25zm-135 0c0 6.214 5 11.25 11.17 11.25 6.168 0 11.168-5.036 11.168-11.25 0-6.212-5-11.25-11.169-11.25C5.001 55.76 0 60.799 0 67.01zm117.518 40.11c0 6.213-5.001 11.25-11.169 11.25-6.169 0-11.17-5.037-11.17-11.25a11.26 11.26 0 015.787-9.86 11.053 11.053 0 015.383-1.39c6.168 0 11.169 5.036 11.169 11.25zm-100.036 0c0 6.213 5 11.25 11.17 11.25 6.168 0 11.168-5.037 11.168-11.25 0-6.214-5-11.25-11.169-11.25-6.168 0-11.169 5.036-11.169 11.25zm61.188 16.63c0 6.213-5.002 11.25-11.17 11.25-6.169 0-11.17-5.037-11.17-11.25s5.002-11.25 11.17-11.25 11.17 5.037 11.17 11.25zM65.072 20.544h4.856v7.826h-4.856v-7.826z" fill="#000"/><path d="M69.928 113.688h-4.856v-8.826h4.856v8.826zM98.045 33.26l3.433 3.46-5.494 5.533-3.433-3.458 5.494-5.534zm-61.09 66.71L32.5 98l6.516-7.022 3.433 3.459-5.494 5.534zm76.678-35.405v4.892h-7.77v-4.892h7.77zm-92.266 4.101v-4.89h7.77v4.89h-7.77zm79.827 28.824l-3.434 3.459-4.595-4.628-.899-.906 3.434-3.459.96.967 4.306 4.337.228.23zM33.806 35.741l3.434-3.458 5.494 5.533-3.434 3.46-5.494-5.535z" fill="#000"/><path d="M42.375 77.593c0 1.5 2 4 2 4v-3.5c0-1 .5-1.5 1-2s2.5-.5 3.5 0 3.5 2.5 3.5 2.5-.5-2-1-3.5-2.5-2-4-2-2 .5-3 1-2 2-2 3.5zm28-15c.5 5 2.5 6 4 7.5s6.5 3.5 6.5 3.5S79 70 77.5 68s-3.625-4.508-2.125-8 3.75-5.25 7.125-6 5.5-.5 7.5 2 6.375 6.093 6.375 6.093l-1.5-6.5s-2-6-8-8-11 1.5-13 4-4 6-3.5 11zm-30-8c-.5 1.5-.5 2.5 0 4.5s2.5 2.5 2.5 2.5-.5-4 0-5 1-2.25 3.5-2.625 3.5.625 5 1.625 3.5 4.5 3.5 4.5 1-3.58.5-5.58-4-4.92-6.5-4.92-4.5.5-6 1.5-2 2-2.5 3.5zM75 6c-3 .5-3.134 4-7 4s-3.5-3.5-7-4c0-2.21 3.134-4 7-4s7 1.79 7 4zM29.728 19.828c0 2.122.612 5.045-2.121 7.779-2.734 2.733-5.107.893-7.779 2.121-1.562-1.562-.612-5.045 2.122-7.778 2.733-2.734 6.216-3.684 7.778-2.122zM6 60c1 2.5 4 3.134 4 7s-3.5 4.5-4 7c-2.21 0-4-3.134-4-7s1.79-7 4-7zm14.828 45.828c2.672 1.672 5.045-.612 7.779 2.122 2.733 2.733.893 5.05 2.12 7.778-1.561 1.562-5.044.612-7.777-2.121-2.734-2.734-3.684-6.216-2.122-7.779zM61 129c2-1.5 3.134-4 7-4s4.5 2 7 4c0 2.209-3.134 4-7 4s-7-1.791-7-4zm43.828-13.272c1.172-3.728-.612-5.045 2.122-7.778 2.733-2.734 4.05-.45 7.778-2.122 1.562 1.563.612 5.045-2.121 7.779-2.734 2.733-6.216 3.683-7.779 2.121zM129 74c-1-3.5-4-3.134-4-7s2-4.5 4-7c2.209 0 4 3.134 4 7s-1.791 7-4 7zm-15.536-41.876C111 30 108.433 31.41 106.5 28.062c-1.933-3.348.5-5.062-.036-8.062 1.913-1.105 5.031.714 6.964 4.062 1.933 3.348 1.949 6.958.036 8.062z" fill="#fff"/></svg>