<svg width="130" height="155" fill="none" xmlns="http://www.w3.org/2000/svg"><path d="M126.496 100.195a31.42 31.42 0 003.504.75c.013.009-3.206-.139-3.261.231.095.592.515 1.138.515 1.722a3.083 3.083 0 01-.961-.926 1.094 1.094 0 01-.189-.426c-.136-.222-.366-.5-.528-.768l-20.293-7.627a2.362 2.362 0 01-.758-.139 2.78 2.78 0 01-.825-.759c-.163.926-.339 1.851-.339 1.851v-2.258c-.162-.204-.324-.426-.5-.657l-.244 1.185.136-1.333-.515-.713-1.068 1.73.947-1.906c-.311-.49-.623-.916-.961-1.416l-2.422 2.175 2.179-2.555a60.916 60.916 0 01-.799-1.221c-.852.712-2.475 1.85-2.475 1.85l2.3-2.1c-.271-.435-.555-.87-.826-1.296l-2.462.814 2.354-1.009-1.042-1.666-1.704 1.352 1.623-1.481c-.406-.676-.771-1.26-1.042-1.722l-1.704 1.102c.757.287 1.353.555 1.353.555-.5-.12-1.015-.26-1.516-.417l-1.637 1.056c1.15.527 2.03.971 2.03.971a35.119 35.119 0 01-2.354-.759l-2.408 1.546c.473.25.925.52 1.353.806a7.985 7.985 0 01-1.678-.565l-1.042.666c.582.417 1.028.76 1.028.76a26.756 26.756 0 01-1.177-.667l-2.99 1.925c-.175 6.757-.811 13.671-1.704 18.79h.08c6.116 1.981 14.22 4.887 14.463 6.405a.214.214 0 010 .13c.283.52.362 1.081.23 1.629l3.856.722-3.883-.37a24.94 24.94 0 01-.203 1.527l2.841.74-2.868-.592a56.665 56.665 0 01-.514 2.592l2.124 1.37-2.164-1.185c-.15.648-.298 1.323-.474 2.008l2.747 1.796-2.706-1.342a157.55 157.55 0 01-.555 2.212l2.963 1.898s-1.894-.898-3.058-1.537c-.094.333-.175.666-.27 1l1.353 1.731-1.353-1.463-.047.172a236.339 236.339 0 01-.887 3.179l3.612 1.573s-2.394-.731-3.747-1.092c-.703 2.444-1.231 4.165-1.231 4.165a.481.481 0 000 .074c.242.476.357.978.338 1.481 0 1.037 1.448 2.842 3.098 5.212a.39.39 0 010 .111l.081.064a9.646 9.646 0 011.705 1.852c.068.046.068.092.068.138l.081.195c.006.04.006.08 0 .12a.492.492 0 010 .195.204.204 0 010 .092.587.587 0 01-.108.241l.067.111.284.25.487.435c.196.142.303.332.298.527a.091.091 0 010 .065.303.303 0 010 .12 1.049 1.049 0 01-.162.195l.121.25v.129c.507.47.929.98 1.259 1.518a.39.39 0 010 .352.292.292 0 01-.095.12.702.702 0 01-.271.093l.203.648c.095.102.095.176.095.231.183.436.305.882.365 1.333v.37c.379.547.812 1.074 1.231 1.611.285.37.785.963 1.15 1.407l.082.102a.478.478 0 00.094.12l.109.148v.056l.081.12a7.944 7.944 0 01-1.286-.703 10.903 10.903 0 01-1.894-1.25 15.21 15.21 0 01-3.098 1.851c.555-.842 1.57-1.536 2.097-2.388.246-.391.303-.825.163-1.24a.345.345 0 000-.111 37.45 37.45 0 01-1.015-2.24 1.252 1.252 0 01-.546-.04.815.815 0 01-.401-.256 1.21 1.21 0 01-.176-.926v-1.018c-.338.194-.73.25-1.11-.204-.378-.453-.23-1.212-.23-1.703-.067-.13-.067-.25-.067-.379l-.27.074c-.204.046-.501-.139-.501-.25-.257-.704-.19-1.407-.392-2.111-2.07-2.915-4.316-5.424-4.627-6.192v-.083l-1.083 2.018 1.353-3.444a4.49 4.49 0 01-.19-1.073l-.405.731.406-.852c-.054-1.036.013-2.48.149-4.109l-4.18 1.12 4.22-1.583c.095-.907.19-1.861.311-2.833-1.217.5-3.923 1.343-3.923 1.343l3.977-1.75-.108-1.953-3.571.333 3.625-.74c.163-1.148.339-2.249.487-3.258l-3.422 1.851 3.477-2.185c.135-.805.243-1.545.351-2.165l-2.503 1.342 2.544-1.602a198.1 198.1 0 00.325-1.851l-1.353-.278v.093c-.163.639-.555 2.036-.555 1.962a6.828 6.828 0 01.216-2.138l-1.948-.416c-.406 1.231-.852 2.406-.852 2.406.024-.842.15-1.681.379-2.508l-2.95-.63a12.56 12.56 0 01-.838 1.472 3.673 3.673 0 01.297-1.592l-1.272-.268a59.485 59.485 0 01-.798 1.083c.176-.38.352-.759.582-1.13l-1.908-.416a11.662 11.662 0 01-.92 2.305c-.189.324-.405.657-.622.999-.067.093-.122.195-.19.287a.39.39 0 000 .111.58.58 0 00-.067.074c-.135.213-.284.426-.433.648l-.162.241a.734.734 0 00-.095.12c-.23.306-.446.611-.69.926l-.081.111-.203.259-.582.741v.055a.734.734 0 01-.094.12l-.122.149-.69.823-.176.213c-.284.278-.568.602-.866.926l-.135.148-.23.241-.568.601-.284.278-.176.194-.541.528c-.095.092-.19.176-.271.268l-.217.195-.189.176-.568.518a.116.116 0 000 .065l-.23.185-.284.24-.15.139c2.571 2.25 6.454 5.406 9.16 6.748 0 0-1.042-.481-2.53-1.231l-.108-.046-.27-.139-.69-.361-.244-.121-.988-.527-.135-.074c-.311-.167-.622-.333-.92-.509l-.23-.121c-.785-.407-1.434-.833-2.138-1.268l-.216-.129-.947-.62h-.081l-.88-.611-.297.222-.38.268-.256.176-.135.083-.19.13-.284.167-.46.277-.595.306v.055c.067.148.122.297.19.454.778 1.777 1.161 3.624 1.136 5.479l-2.774-5.424c-.17.05-.346.087-.528.111l-.31.065a4.064 4.064 0 01-.826 0c-.23-.028-.5-.074-.785-.129-.253.052-.51.095-.77.129-.373.028-.75.006-1.11-.065l-2.868 5.406c-.018-1.883.389-3.756 1.204-5.554.054-.12.135-.222.135-.324a13.56 13.56 0 01-1.88-1.027 3.967 3.967 0 01-.339-.231l-.31-.204c-.325-.222-.65-.463-.989-.722l-.094-.074-.135.092-.19.149-.947.657-.135.083-.88.574-.257.167-1.014.61c-.352.216-.704.42-1.056.611l-.284.158c-.284.166-.568.314-.838.463l-.203.111c-.325.185-.65.351-.96.518l-.272.139-.676.342-.257.13-.108.055c-1.488.75-2.53 1.231-2.53 1.231 2.895-1.416 7.008-4.841 9.565-7.09v-.055l-.785-.713-.257-.222c-.325-.315-.663-.639-.987-.972-.095-.083-.176-.176-.271-.268-.257-.26-.514-.528-.758-.796a6.498 6.498 0 00-.297-.306c-.311-.352-.636-.703-.947-1.064v-.065c-.298-.342-.582-.685-.866-1.027v-.001l-.257-.314a38.644 38.644 0 00-.703-.925v-.001a2.526 2.526 0 00-.177-.222c-.27-.361-.527-.722-.784-1.083l-.163-.231a19.656 19.656 0 01-.568-.843 2.4 2.4 0 01-.19-.287c-.216-.342-.432-.675-.622-.999-.426-.8-.747-1.624-.96-2.462l-2.706.573c.23.371.406.75.582 1.13.013.037-.38-.5-.785-1.083l-1.285.268a3.48 3.48 0 01.297 1.592 11.596 11.596 0 01-.825-1.471l-2.963.629c.226.828.357 1.666.393 2.508 0 .037-.46-1.175-.866-2.406l-1.948.416c.185.705.258 1.422.216 2.138 0 .074-.392-1.323-.555-1.962v-.092l-1.285.277s.135.694.325 1.851l2.557 1.602-2.517-1.342c.109.62.23 1.36.352 2.166l3.423 2.202-3.423-1.851c.163 1.009.325 2.111.487 3.258l3.64.741-3.586-.333c.109.722.203 1.453.285 2.184L41.372 127s-2.72-.842-3.937-1.342c.121.981.23 1.907.31 2.833l4.235 1.582-4.194-1.101c.15 1.629.15 3.073.15 4.1l.405.861-.406-.731a3.908 3.908 0 01-.19 1.074l1.354 3.443s-.528-1.009-1.083-2.018a.176.176 0 010 .083c-.31.769-2.557 3.277-4.627 6.193-.202.703-.121 1.407-.392 2.11-.04.111-.297.25-.5.25l-.257-.074c-.04.125-.068.252-.082.379a3.337 3.337 0 01-.216 1.704c-.352.407-.785.398-1.123.203v1.018a1.16 1.16 0 01-.176.926.815.815 0 01-.401.256c-.17.054-.362.068-.546.04-.392.972-.73 1.694-1.015 2.24a.318.318 0 000 .111c-.14.415-.083.849.163 1.241.527.851 1.542 1.545 2.097 2.388a15.624 15.624 0 01-3.098-1.852c-.557.467-1.192.887-1.894 1.25-.387.264-.813.5-1.272.703a6.15 6.15 0 01.27-.37c.118-.153.256-.319.405-.5l.069-.083c.298-.361.609-.74.812-1 .433-.536.866-1.064 1.23-1.61v-.37c.05-.452.168-.899.353-1.333.094-.056.094-.13.094-.232l.203-.648a.775.775 0 01-.27-.092.327.327 0 01-.109-.121.396.396 0 010-.351c.32-.54.738-1.05 1.245-1.518.068-.13.176-.25.176-.38a1.03 1.03 0 01-.162-.194.339.339 0 010-.111.152.152 0 000-.074c-.005-.194.096-.382.284-.528a9.36 9.36 0 01.5-.435l.284-.25v-.111a.577.577 0 01-.108-.241v-.101a.762.762 0 010-.176.506.506 0 010-.139c.018-.059.04-.118.068-.176l.081-.157a9.536 9.536 0 011.718-1.851.118.118 0 010-.065c1.678-2.435 3.18-4.267 3.18-5.322a2.858 2.858 0 01.338-1.481v-.075s-.528-1.721-1.232-4.165a366.217 366.217 0 00-3.747 1.092l3.612-1.573c-.284-1.027-.608-2.166-.92-3.351l-1.353 1.463 1.353-1.731a27.403 27.403 0 00-.27-.999v-.001c-1.164.611-3.044 1.537-3.044 1.537l2.936-1.889c-.19-.74-.38-1.481-.555-2.212l-2.706 1.342 2.625-1.684c-.163-.685-.325-1.361-.474-2.009l-2.151 1.185 2.11-1.37a56.665 56.665 0 01-.514-2.592l-2.854.593 2.84-.741c-.094-.601-.216-1.073-.216-1.527l-3.869.37 3.842-.722a2.253 2.253 0 01.23-1.629v-.129c.244-1.518 8.361-4.425 14.476-6.406l.19-.064.65-.204c-.853-4.97-1.462-11.542-1.651-18.021l-3.816-2.453c-.378.231-.784.453-1.177.666-.04.019.447-.342 1.029-.759l-1.042-.666a8.135 8.135 0 01-1.664.564c.425-.288.876-.557 1.353-.805l-2.395-1.546a35.42 35.42 0 01-2.367.76c-.041.008.892-.445 2.042-.973l-1.65-1.055c-.496.154-.997.293-1.502.417a15.6 15.6 0 011.285-.556l-1.704-1.101c-.27.463-.623 1.046-1.042 1.721l1.624 1.481-1.705-1.35-1.028 1.665 2.354 1.01-2.476-.816c-.27.426-.541.861-.825 1.296l2.3 2.102s-1.61-1.157-2.476-1.852c-.257.408-.528.815-.785 1.213l2.178 2.564s-1.637-1.472-2.435-2.175c-.325.49-.65.972-.96 1.416l.947 1.907-1.07-1.731-.513.712.148 1.333-.257-1.185c-.175.232-.338.454-.5.658v2.175s-.176-.926-.338-1.851a2.644 2.644 0 01-.826.759 2.363 2.363 0 01-.757.138l-20.294 7.627c-.149.269-.392.547-.527.769-.03.148-.094.291-.19.425-.223.351-.55.666-.96.926.067-.583.419-1.129.527-1.722.054-.314-3.152-.175-3.152-.175a31.161 31.161 0 003.49-.75.562.562 0 01.203-.046l.555-.241 12.947-5.554 4.803-2.064.217-.092c.324-.491 1.055-1.583 1.988-2.962l-3.422-.232 3.625-.074c.433-.61.88-1.277 1.353-1.953l-1.353.417 1.489-.593c.202-.287.392-.583.608-.879-1.34.111-3.436.204-3.436.204l3.612-.482c.379-.527.744-1.055 1.11-1.573l-3.83.203 4.06-.527c.338-.472.676-.954 1-1.398l-4.058.324 4.18-.546.515-.703-1.57-.37 1.637.277c.514-.666.974-1.25 1.353-1.712l.257-.297.081-.101c.068-.065.19-.13.19-.195l.08-.083.15-.139v-.056a.82.82 0 01.162-.11c.137-.084.298-.148.473-.188.174-.04.358-.055.542-.044a1.11 1.11 0 01.203 0h.121c.199.005.395.03.582.074.25.064.494.138.73.222l.204.074c.27.102.554.213.866.352l.974.454.23.11c.69.343 1.42.723 2.15 1.13l.19.111c.771.398 1.542.88 2.286 1.324h.068l1.583.925.216.13.128.079c.371.229.72.444 1.036.652.068-7.201.73-13.68 2.3-16.902.19-.38.365-.721.555-1.064v-.074l-.447-.24-1.204-.065h1.001l-.866-.473h-.42a10.683 10.683 0 01-2.407-.453 25.375 25.375 0 012.016 0l-1.272-.731a33.483 33.483 0 01-2.787-.639l2.138.231-.043-.026a28.6 28.6 0 01-.918-.594 18.209 18.209 0 01-2.625-.657l2.11.306a10.956 10.956 0 01-1.203-.926c-.939.133-1.898.186-2.855.157l-1.502 1.426 1.353-1.426a66.1 66.1 0 01-2.597-.11l-.636 1.684s.19-.889.352-1.703l-2.178-.158-2.165 2.064s.974-1.23 1.691-2.017l-1.975-.167-2.706 2.064s1.393-1.351 2.165-2.12l-.65-.055a34.396 34.396 0 01-1.57-.157l-2.705 1.277 2.165-1.342c-2.057-.287-2.395-.63-2.706-1.065a.65.65 0 01-.122-.305v-.065c-2.624-1.907-9.362-9.487-9.74-10.311a.434.434 0 010-.24L14.03 49a1.546 1.546 0 01-.366-.37 5.597 5.597 0 01-.703-.926c-.04-.074.135-.26.257-.185.622.416 1.028.925 1.65 1.342.325.222.893-.667 1.096-.787.203-.12.284.093.284.093a.256.256 0 01-.08.231c-.123.296-.34.555-.434.842 1.042 2.24 7.103 7.748 9.47 9.849h4.343l-1.664-2.185 2.26 2.175h2.3c-.61-.842-1.353-2.175-1.353-2.175l1.718 2.175h2.49l-1.273-2.175 1.76 2.222h2.609c-.54-.843-1.46-2.222-1.46-2.222l1.812 2.388a5.163 5.163 0 011.813.39l.216.11.136.074c.115.073.223.15.324.232h.718l.15.064h.107l.109.065 4.654 1.777a4.668 4.668 0 01-.217-.73v-.112a4.125 4.125 0 010-.722.784.784 0 000-.176c.008-.235.035-.47.081-.703.514-2.444 2.814-5.332 7.008-8.33a20.27 20.27 0 011.53-1 7.719 7.719 0 01.378-1.852.746.746 0 01-.122-.323.305.305 0 010-.112.908.908 0 010-.268c0-.037-.027-.028 0-.12.027-.093.108-.185.108-.287a.915.915 0 01.068-.13 3.47 3.47 0 01.19-.305c.444-.609 1.04-1.16 1.758-1.63l-.162-.129c-.65-.528-1.177-1.148-.798-1.583l.08-.083c.089-.084.184-.164.285-.24-.365-.417-.771-.88-1.082-1.25-.312-.37-.582-.74-.866-1.12l-.217-.278v-.148l-.108-.139-.406-.583c-.555-.759-1.055-1.555-1.57-2.342-.243-.398-.473-.796-.716-1.203l-.365-.602-.325-.61a58.187 58.187 0 01-4.384-10.117c-1.163-3.444-2.015-6.924-2.705-10.367 0 0 0-4.206-1.231-8.093C41.953 2.429 37.65 0 37.65 0s5.073 2.425 6.264 4.191c1.19 1.766 1.028 6.664 1.718 10.09.352 1.711.744 3.442 1.177 5.155a81.61 81.61 0 001.475 5.146 59.567 59.567 0 001.908 5.082c.717 1.675 1.474 3.332 2.354 4.942l.324.602.352.602.69 1.184c.5.787.988 1.565 1.529 2.324l.65.601.094.14v.138l.216.278c.284.38.555.712.853 1.11.297.398.636.778.96 1.167.487-.102.934.055 1.353.472l.785.759c.58-.225 1.197-.399 1.84-.518h.284c.16-.031.322-.053.487-.065.257-.014.514-.014.771 0h.19a17.418 17.418 0 013.869 0h.663a9.238 9.238 0 012.421.481l.636-.63c.105-.13.252-.243.43-.33.179-.087.383-.144.598-.17h.298c.325-.388.663-.814.96-1.165.298-.352.569-.732.853-1.111l.203-.278v-.139l.095-.139.392-.573c.541-.76 1.015-1.537 1.515-2.324.244-.389.46-.786.704-1.184l.338-.602.325-.602c.893-1.61 1.65-3.267 2.367-4.942.717-1.676 1.326-3.379 1.894-5.082a72.246 72.246 0 001.488-5.146c.442-1.728.83-3.447 1.164-5.156.703-3.425.852-8.53 1.732-10.09C87.749 2.66 92.633 0 92.633 0s-3.978 3.887-4.816 6.317c-.84 2.43-1.123 7.852-1.123 7.852-.69 3.443-1.556 6.924-2.706 10.367a58.109 58.109 0 01-4.37 10.117l-.338.61-.352.602c-.243.407-.474.805-.73 1.203-.515.787-1.002 1.583-1.556 2.342l-.42.584-.094.138v.148l-.217.278c-.284.38-.514.685-.866 1.12-.352.435-.717.833-1.082 1.25.097.076.187.157.27.24.474.426-.04 1.056-.703 1.592.394.253.76.526 1.096.815l.176.166.162.158c.108.11.216.213.311.324l.095.11c.095.112.176.232.257.343a.59.59 0 01.068.13c.056.08.102.164.135.25a.521.521 0 010 .139c.035.075.062.153.081.231v.12a.637.637 0 010 .223v.101a.229.229 0 000 .093c.095.203.176.407.257.62.016.075.039.15.068.222.054.213.162.417.162.639.927.492 1.8 1.03 2.611 1.61 2.595 1.762 4.67 3.849 6.115 6.146.586.62.887 1.345.866 2.083v.768c.014.16.014.321 0 .482.007.07.007.142 0 .212l1.827-.703.121-.065h.095l.149-.064h.717c.101-.082.21-.16.325-.232l.135-.074.216-.111a5.239 5.239 0 011.827-.389l1.758-2.24-1.46 2.222h2.61l1.718-2.185-1.353 2.13h2.597l1.719-2.176s-.799 1.333-1.353 2.175h2.3l2.232-2.184s-1.042 1.342-1.678 2.184h4.343c2.368-2.101 8.429-7.608 9.403-9.839-.095-.296-.311-.555-.42-.852a.284.284 0 01-.083-.108.207.207 0 01-.011-.123c0-.092.04-.24.284-.092.243.148.771 1.008 1.109.786.609-.416 1.015-.944 1.637-1.342.122-.074.257.111.257.185a6.39 6.39 0 01-.69.926 1.694 1.694 0 01-.297.38.623.623 0 01-.095.092.411.411 0 010 .24c-.393.824-7.13 8.405-9.741 10.312v.065a.645.645 0 01-.122.305c-.311.435-.649.777-2.706 1.064l2.151 1.343-2.705-1.278c-.447.056-.961.158-1.57.158l-.649.055 2.178 2.12-2.706-2.064-1.961.166a54.992 54.992 0 011.677 2.018l-2.083-1.98-2.178.157.365 1.703-.65-1.685-.042.003c-.878.055-1.743.108-2.555.108l1.285 1.426-1.488-1.426a16.946 16.946 0 01-2.868-.157c-.365.33-.768.64-1.204.925l2.11-.305c-.836.278-1.71.498-2.61.657l-.975.62 2.138-.231c-.91.25-1.84.463-2.787.639l-1.272.73a25.375 25.375 0 012.016 0c-.762.24-1.575.393-2.408.454h-.406l-.88.472h1.001l-.987.056v.083c.037.083.082.163.135.241.176.342.365.685.541 1.064 1.53 3.138 2.206 9.395 2.3 16.402l.366-.231h.067l.136-.084c.473-.314.987-.62 1.5-.925h.001l.23-.139c.352-.204.69-.416 1.055-.62l1.07-.611.27-.148c.352-.185.69-.38 1.042-.556l1.028-.527.243-.12.947-.435c.298-.13.582-.241.866-.343l.19-.074c.24-.084.49-.159.744-.222a3.05 3.05 0 01.581-.074h.122c.072-.005.145-.005.217 0 .18-.01.363.006.535.046.172.04.33.103.466.185.064.03.119.068.162.111l.068.056.149.139.094.092.163.176.121.13.19.222.081.092c.203.25.433.528.676.843.203.259.42.546.636.842l1.637-.278-1.569.37c.176.223.338.463.528.704l4.167.546-4.059-.324c.325.472.663.907 1.001 1.398l4.059.527-3.829-.203 1.096 1.573 3.612.482s-2.07-.093-3.423-.204l.609.88 1.475.592-1.353-.417c.487.676.933 1.342 1.353 1.953l3.612.074-3.409.232 1.975 2.962 18.521 7.951a.564.564 0 01.203.046z" fill="#000"/><path d="M66.684 66.158c-2.575 0-7.404-.837-7.404-.837s2.575 2.509 4.185 4.6c3.219 6.689 2.897 55.186 2.897 55.186s.644-45.153.644-49.334c0-4.18 0-4.598 2.575-8.361.966-.836 3.219-2.09 3.219-2.09s-3.54.836-6.116.836z" fill="#fff"/><path d="M60.96 80.265C58.4 78.235 52 78.64 52 78.64s2.24.406 4.48 1.219c2.24.812 2.56.839 4.8 2.843 2.24 2.004 3.2 3.655 3.2 3.655s-.96-4.061-3.52-6.092zm24.333 4.654c-.324-3.39-1.296-6.865-1.296-6.865v4.982c0 3.875.243 7.75-.277 12.178-.52 4.429-.716 8.159-1.668 11.072-.952 2.912-3.89 9.193-5.612 11.625-1.722 2.431-4.16 5.535-5.72 6.643-1.56 1.107-4.68 2.767-4.68 2.767s2.6 0 5.72-2.214c3.12-2.214 3.775-4.383 5.72-6.643 1.945-2.259 4.572-8.222 4.572-8.222s2.384-8.117 2.708-12.26c.324-4.142.858-9.674.533-13.063zm-38.96 1.765l.453-5.863s-.01.416.133 3.717c.142 3.3.266 4.944.354 8.25.088 3.308.446 6.581.938 11.082.492 4.502 2.15 12.176 2.15 12.176s-1.39-5.219-2.332-8.835c-.942-3.616-1.255-6.481-1.522-11.424-.267-4.944-.4-6.172-.174-9.103z" fill="#fff"/></svg>