<svg width="138" height="135" fill="none" xmlns="http://www.w3.org/2000/svg"><path d="M121.583 131.192c.156-17.343-16.358-57.342-30.496-81.285a63.14 63.14 0 0119.878 6.098l-.371 6.19 1.67-5.615.268.268a68.931 68.931 0 0025.468-.23 93.205 93.205 0 01-25.45-1.847 96.462 96.462 0 00-23.06-7.288 70.004 70.004 0 00-10.85-14.535c1.18-1.184 3.05-3.956 4.692-6.41 1.642-2.453 7.862-3.684 7.368-8.828-.22 4.518-6.356 6.38-7.9 7.93-2.275 2.82-4.412 5.324-5.366 6.371a7.08 7.08 0 00-1.79-.977 3.75 3.75 0 00.284-1.629c-.121-1.58-.965-2.791-1.91-2.737-.946.053-1.544 1.55-1.557 2.994a8.667 8.667 0 00-1.887-.344c.01-.92.218-1.83.61-2.67.226-.316.502-.593.816-.82.16-.203.343-.387.545-.547l.364-.364c3.564-6.084 29.003-13.089 30.719-23.853-6.47 14.104-30.059 15.401-31.7 22.868a3.69 3.69 0 00-2.378-.746 4.12 4.12 0 00-2.301.698C65.43 16.042 42.77 14.079 36.554 0c1.524 10.644 26.2 18.46 29.475 24.572.279.193.52.436.713.716l.758.761c.403.838.58 1.77.516 2.705a9.174 9.174 0 00-1.803.378c.149-1.582-.604-2.885-1.549-2.922-.944-.036-1.81 1.1-1.959 2.683a3.93 3.93 0 00.3 1.668 6.499 6.499 0 00-2.034 1.057c-.936-.94-3.028-3.495-5.297-6.32-1.472-1.477-7.665-3.227-7.76-7.788-.54 5.108 5.477 6.409 6.987 8.653 1.51 2.245 3.733 5.205 4.71 6.551a74.304 74.304 0 00-10.928 14.55 99.696 99.696 0 00-23.106 7.706A94.77 94.77 0 010 57.28a69.748 69.748 0 0025.513-.185l.318-.32 1.48 5.587-.26-6.185a66.712 66.712 0 0119.99-6.458c-14.526 24.248-31.805 64.507-31.96 81.851.241 3.159 3.294 3.944 7.935 3.134l1.353-.283a51.41 51.41 0 006.859-2.23l.363-.364.903-.37a155.96 155.96 0 008.177-3.732l1.401-.69a172.418 172.418 0 007.505-4.042l1.086-.642c1.764-1.055 3.528-2.109 5.203-3.163a20.429 20.429 0 002.717-2.012l.863-.866a24.946 24.946 0 003.093-3.731 6.2 6.2 0 002.248 1.686 6.282 6.282 0 002.771.527 6.413 6.413 0 002.751-.567 6.523 6.523 0 002.264-1.691 22.656 22.656 0 002.982 3.631l.847.85c.836.73 1.733 1.386 2.682 1.963 18.706 11.211 41.699 21.165 42.499 12.215z" fill="#000"/><path d="M90.5 54c-3-5-8-11.5-8-11.5s3 7 6 11.5 7 12 8.5 15.5l6 14c1.5 3.5 3.5 9.5 5 14s3.5 12 4.5 15.5 2.5 10.5 2.5 10.5 1 3.5-1 4.5-6 0-6 0l-11-3 9.5 4s6 3.5 9.5 3 2-5 2-5-1.5-7-2-9.5-2.5-9-3.5-12.5-4.5-13.5-4.5-13.5-7-17-8-19S93.5 59 90.5 54zM71 107c-1 2-3 4-4.5 4s3-4 3-7.5 1-18 1-18L71 72s-1.5-16-1.5-21.5-3-6-2-10 1-6.5 1-6.5.5 1 1.5 4.5 1.5 24 2 27S72 88 72 88s0 17-1 19zm-46-4.5C26.5 98 36 79 36 79s-4 14-6 18-7.5 20-7.5 20-3.5 11.5-1 12 10-2 13-3.5 13.5-7 16.5-9 10.5-8.5 10.5-8.5-4.5 5.5-6 7.5-12.5 7.5-14.5 9-15 6.5-18 7.5-5.5 1-5.5-1.5 1-6 1.5-9 4.5-14.5 6-19z" fill="#fff"/></svg>