<svg width="212" height="212" fill="none" xmlns="http://www.w3.org/2000/svg"><path d="M211 118.67c0-56.379-29.273-115.15-85.465-115.15C69.343 3.52 1 36.974 1 93.353S31.087 209.32 87.28 209.32c56.191 0 123.72-34.271 123.72-90.65z" fill="#fff"/><path d="M106 1C48.01 1 1 48.01 1 106c0 33.159 15.37 62.728 39.375 81.97M148.525 9.968C185.328 26.29 211 63.147 211 106c0 57.99-47.01 105-105 105a105.21 105.21 0 01-26.25-3.308" stroke="#000" stroke-linecap="round" stroke-linejoin="round"/><path d="M130.555 49.722c-4.814-.487-66.477-10.537-72.123-11.108-5.646-.572-9.232 3.418-9.94 10.42-.709 7-5.162 26.68-4.474 30.557.688 3.879 3.625 6.896 9.563 6.953l.94 12.064L71.45 86.176s58.326 8.624 61.055 8.356c2.728-.268 5.14-2.744 5.522-6.514.382-3.77-.167-25.043-.211-29.944-.045-4.901-2.446-7.864-7.26-8.352zm-44.58 64.165c4.817.451 67.261 2.481 72.911 3.01 5.65.528 8.399 5.134 7.744 12.14-.655 7.006-.08 27.175-1.503 30.848-1.423 3.672-4.887 6.067-10.724 4.977l-3.25 11.657-14.213-15.463s-58.893-2.787-61.52-3.576c-2.625-.789-4.514-3.684-4.162-7.457.353-3.772 4.994-24.541 5.983-29.341.988-4.8 3.916-7.245 8.734-6.795z" fill="#FFD500"/><path d="M134.842 48.715c-4.753-.99-73.796-8.166-77.603-8.405-3.808-.239-7.332 3.455-7.6 10.04-.27 6.587-2.857 24.312-2.573 28.245.283 3.933 2.9 7.246 8.82 7.924l-.316 12.11 18.188-10.604s55.617 5.489 58.368 5.508c2.751.02 5.416-2.194 6.189-5.907.773-3.713 2.438-24.952 2.904-29.836.466-4.884-1.623-8.086-6.377-9.075zM86.201 110.78c4.856.029 73.869 7.48 77.642 8.044 3.773.564 6.445 4.914 5.328 11.41-1.118 6.496-2.302 24.37-3.403 28.157-1.101 3.786-4.354 6.476-10.285 5.899l-2.229 11.908-15.562-14.18s-55.532-6.287-58.226-6.845c-2.694-.558-4.836-3.28-4.814-7.073.022-3.792 2.844-24.908 3.412-29.781.569-4.874 3.282-7.567 8.138-7.539z" stroke="#000" stroke-linecap="round" stroke-linejoin="round"/><path d="M59.51 55.323a1 1 0 011.109-.96l62.94 6.902a1 1 0 01.849 1.284l-.804 2.657a1 1 0 01-1.067.704l-62.23-6.886a1 1 0 01-.889-1.028l.093-2.673zm28.319 70.394a1 1 0 011.108-.959l62.941 6.902a1 1 0 01.848 1.283l-.804 2.657a1 1 0 01-1.067.705l-62.229-6.886a1 1 0 01-.89-1.029l.093-2.673zM58.174 65.125a1 1 0 011.11-.937l42.309 4.735a1 1 0 01.861 1.226l-.638 2.674a1.001 1.001 0 01-1.086.761l-41.821-4.741a1 1 0 01-.886-1.05l.151-2.668zm28.333 70.409a1 1 0 011.11-.952l55.54 6.125a1 1 0 01.853 1.263l-.744 2.664a1 1 0 01-1.074.724l-54.91-6.117a1 1 0 01-.888-1.036l.113-2.671z" fill="#1F1F22"/><circle cx="26" cy="26" r="25" fill="#000"/><path d="M18.599 30.56c0-1.08.3-2.02.9-2.82.6-.8 1.38-1.41 2.34-1.83.76-.34 1.65-.68 2.67-1.02 1.02-.34 1.81-.7 2.37-1.08.56-.38.84-.83.84-1.35v-2.49c0-.62-.25-1.03-.75-1.23-.54-.22-1.38-.33-2.52-.33-1.38 0-3.2.25-5.46.75v-3.3c2-.42 4.09-.63 6.27-.63 2.36 0 4.11.36 5.25 1.08 1.16.72 1.74 1.92 1.74 3.6v2.7c0 1.02-.31 1.91-.93 2.67-.6.74-1.38 1.3-2.34 1.68-.9.38-1.82.72-2.76 1.02-1.02.36-1.83.76-2.43 1.2-.58.44-.87.96-.87 1.56v.99h9.36V35h-13.68v-4.44z" fill="#fff"/></svg>