<svg width="212" height="212" fill="none" xmlns="http://www.w3.org/2000/svg"><path d="M211 118.67c0-56.379-29.273-115.15-85.465-115.15C69.343 3.52 1 36.974 1 93.353S31.087 209.32 87.28 209.32c56.191 0 123.72-34.271 123.72-90.65z" fill="#fff"/><path d="M106 1C48.01 1 1 48.01 1 106c0 33.159 15.37 62.728 39.375 81.97M148.525 9.968C185.328 26.29 211 63.147 211 106c0 57.99-47.01 105-105 105a105.21 105.21 0 01-26.25-3.308" stroke="#000" stroke-linecap="round" stroke-linejoin="round"/><circle cx="26" cy="26" r="25" fill="#000"/><path d="M140.841 140.123c.376-.392 2.131-.459 2.37.133.122.595.144 1.206.067 1.809-.048.61-.065 1.622-.403 1.999a1.757 1.757 0 01-1.852.149c-.319-.22-.163-.698-.438-1.079-.135-.011-.208.052-.372-.002a8.908 8.908 0 00-.097 2.323c.051 3.903.072 7.839-.043 11.897-.052 2.031.337 4.42-.812 5.793-.462.41-.972.764-1.518 1.052a13.567 13.567 0 01-2.112 5.577c-.01.004-.095-.071-.057.023s.18-.15.18-.15c.232.114-.119.355-.203.389-.554.574-.928 1.217-1.555 1.854a11.228 11.228 0 01-1.713 1.787c-.512.327-1.038.835-1.528 1.219l-1.078.765a4.42 4.42 0 00-.99.74c-.625.264-1.193.724-1.84.986a11.92 11.92 0 00-1.794.967c-.898.249-1.764.6-2.582 1.046-.591.294-1.228.367-1.849.695.071.015.202-.093.248.02-.999.209-1.987.474-2.957.793-.235.095-.542.253-.704.285-.162.033-.28-.017-.54-.01-.259.006-.531.117-.766.212-.513.109-1.083.187-1.65.297-.262.029-.432.175-.731.219-.299.045-.743-.081-.922-.009-.178.072-.242.186-.582.236-.34.05-.726-.012-1.087.014-1.491.124-3.203.456-4.873.488-1.023.01-2.02.032-3.118.018-.26.007-.678-.108-.895.166a3.294 3.294 0 00-1.605-.159c-.808.055-1.553.159-2.469.137-.916-.022-1.805-.274-2.638-.253-.273.001-.348-.023-.517.154a4.316 4.316 0 00-1.75-.383l-.246-.021c-.991-.082-1.973-.163-2.974-.292-2.042-.266-4.033-.596-5.975-1.044-.459-.109-.894-.293-1.369-.385-1.039-.191-1.987-.375-2.895-.619-.422-.124-.895-.348-1.266-.427-.37-.08-.702-.087-1.022-.176a37.8 37.8 0 01-4.183-1.584 23.926 23.926 0 01-2.965-1.575c-.494-.302-1.02-.494-1.507-.777-.914-.559-1.659-1.372-2.557-1.915-.215-.208-.343-.659-.689-.65a25.671 25.671 0 01-5.352-7.383c-.21-.65-.373-1.314-.488-1.988a23.254 23.254 0 01-.522-3.067c-.016-.201.004-.395-.021-.592a4.055 4.055 0 01.021-1.539c.063-.277.256-.53.332-.801.175-.617.305-1.216.503-1.777a7.206 7.206 0 011.818-2.824 13.49 13.49 0 012.506-2.283 5.204 5.204 0 001.314-1.046 20.064 20.064 0 013.659-1.22l-.237 2.248c-2.162.92-4.799 1.912-6.094 4.109a9.659 9.659 0 00-1.402 4.065 12.278 12.278 0 00-.155 1.614c.032.348.17.718.227 1.1.056.381.12.782.178 1.141a9.25 9.25 0 00.684 1.985c.222.639.492 1.26.808 1.858.18.31.405.568.605.848a29.238 29.238 0 004.661 4.734c1.51 1.246 3.59 1.714 5.493 2.769.45.271.915.517 1.392.736.488.207 1.004.348 1.528.562 1.05.411 2.13.74 3.23.986 2.254.573 4.61 1.05 7.07 1.507 2.457.458 5.082.542 7.604.995 1.27.184 2.549.297 3.831.339 1.218.071 2.438.076 3.657.016 1.231-.062 2.49-.004 3.635-.063 1.145-.06 2.269-.198 3.361-.335 1.093-.136 2.164-.406 3.209-.524a13.925 13.925 0 003.212-.514 16.884 16.884 0 003.246-.889c3.066-.82 4.702-1.508 7.51-3.098.497-.31.993-.435 1.436-.691.718-.411 1.356-1.128 2.118-1.623a6.87 6.87 0 00.998-.907c.336-.333.75-.577.999-.853.306-.413.583-.846.83-1.297a18.494 18.494 0 002.236-4.109c.121-.431.036-.91.352-1.235a1.928 1.928 0 00-.84-.294 4.774 4.774 0 01-1.028-1.889 23.01 23.01 0 01.017-3.493c.049-3.386.603-7.591.701-10.909-1.799.171-2.079-1.581-2.08-3.122a10.021 10.021 0 00-1.512 2.634c-.186.404-.448 1.187-.748 1.309-.3.122-.646-.11-.95-.052a3.804 3.804 0 01.394-2.345 21.117 21.117 0 012.329-5.042 6.26 6.26 0 00.619-.819c.209-.347.153-.915.398-1.255.245-.339.862-.381 1.291-.457.008-.681-.019-1.61 0-2.535a5.332 5.332 0 01.402-2.458c.288-.423.92-.428 1.49-.396.016-7.81.572-16.067.54-23.835.057-.155-.347.195-.319-.112.029-.306.252-.189.33-.428a9.476 9.476 0 00-.006-1.659c.004-1.663.105-3.572.124-5.088.043-2.269.024-4.501.071-6.651.087-4.505.247-9.073.455-13.605.055-1.05-.066-2.159-.043-3.261.036-3.337.273-6.853.267-10.13 0-2.185 0-4.37.037-6.572.053-3.43.4-6.916.32-10.162-.363-.355-.997-.492-1.457-.764a18.297 18.297 0 01-.328-4.774c.026-1.716.265-3.474.295-5.18a2.019 2.019 0 011.569-1.17c-.138-.89.038-1.8.498-2.574 1.5-.64 1.49 1.221 1.384 2.499 1.147-.082 2.072.232 2.361.945-.112 2.231-.054 4.317-.007 6.483.023.756-.072 1.494-.028 2.197.018.233.037.28.117.477-.158.392-.212.906-.408 1.259a5.248 5.248 0 00-1.359.692c-.239 6.774-.158 13.528-.228 20.288-.039 3.382-.173 6.802-.161 10.175.011 3.372-.095 6.672-.106 10.097-.011 3.425-.139 6.886-.299 10.295-.16 3.409-.205 6.804-.237 10.205-.08 6.841-.541 13.661-.462 20.438.627.226 1.303.357 1.486.971.084.623.094 1.254.029 1.879-.081 1.716-.215 4.054-.274 5.717.211-.018.422-.012.631.018.153-.51-.22-.84.156-1.233z" fill="#FFD500"/><path d="M69.128 157.974c-.392-2.497-2.793-8.167-2.853-10.996l.234-2.211c.738-7.723 1.202-15.395 2.288-22.899.12-.897.329-1.811.461-2.703.443-2.75.728-5.637 1.044-8.494.415-3.757 1.07-7.518 1.397-11.314-.139.048-.142.253-.232.344-.125-.237.165-.434.22-.67.162-1.062.254-2.133.274-3.206.322-3.031.766-6.5 1.005-9.315.022-.642.22-1.315.28-1.962a14.24 14.24 0 013.117-7.807 15.418 15.418 0 012.18-1.985c2.96-2.506 6.46-4.197 10.02-6.191.216-1.837.851-3.6 1.854-5.143a11.141 11.141 0 013.247-3.408c.555-4.363.971-9.269 1.715-13.711.106-.72.169-1.605.51-1.962a3.673 3.673 0 011.478-.619 5.184 5.184 0 011.81-.146l.4-4.062c.075-.772.017-1.563.707-1.487a27.78 27.78 0 01-4.72-2.25 16.117 16.117 0 01-1.44-.836 7.127 7.127 0 01-1.156-1.587 9.502 9.502 0 01-1.484-3.787 13.243 13.243 0 01-.258-2.317 1.953 1.953 0 01.163-.841c.29-.411 1.921-.29 2.704-.273 3.098.065 7.394.803 12.047 2.274a65.907 65.907 0 0010.916 2.425c.521.072 1.168.09 1.276.367a3.75 3.75 0 01-.089.896c-.12.526-.266 1.046-.439 1.557a10.177 10.177 0 01-1.207 2.994c-.308.472-.617.967-.893 1.307-.331.326-.68.633-1.044.92a8.788 8.788 0 01-1.011.928 9.707 9.707 0 01-2.277.878c-.846.133-1.68.342-2.492.625-.335-.16-.946.074-1.399.07.037.093.255.034.302.154.001 1.608-.297 3.47-.431 5.19a11.75 11.75 0 012.636 1.375c.055.406.425.788.466 1.188a16 16 0 01-.232 2.083c-.103 1.93-.379 4.117-.511 5.975.027.203.184-.174.316.029a4.076 4.076 0 00-.085 1.709 29.297 29.297 0 01-.702 3.855 3.808 3.808 0 00-.039 1.186c.069.229.563.58.798.857a14.306 14.306 0 011.857 3c.331.782.572 1.603.717 2.445.19.942.215 1.912.074 2.866a11.8 11.8 0 012.168 1.517 18.898 18.898 0 011.986 1.668c.853.92 1.829 1.777 2.635 2.791.269.339.575.586.868.903a30.7 30.7 0 012.015 2.976c.247.336.446.843.574 1.036.128.193.356.291.435.494a10.938 10.938 0 011.169 3.92c.027.203.152.387.179.59.013.42 0 .842-.04 1.262.01 1.122.083 2.272.051 3.53-.277.97-.416 1.975-.414 2.984a155.891 155.891 0 00-.273 3.128v.001c-.082 1.021-.045 2.025-.179 3.047-.663 5.051-1.12 10.307-1.484 15.533-.29 4.102-.691 8.218-1.145 12.41-.454 4.192-.738 8.42-1.381 12.53-.47 3.029-.754 6.238-.997 9.311.581.251 1.226.453 1.845.666-.053.107-.218.059-.357.053.71.463 1.377.992 1.993 1.579.08.9.596 1.575.261 2.648-.063.187-.241.348-.338.581-.097.234-.104.484-.191.638a3.668 3.668 0 01-.432.449c-.171.179-.266.444-.381.578-.116.135-.352.255-.523.434a3.745 3.745 0 01-.444.497l-.595.249c-.15.127-.306.247-.468.357a11.68 11.68 0 01-1.523.477 12.843 12.843 0 01-.654 2.183c-.072.245-.093.619-.153.761-.059.143-.239.326-.327.502a4.978 4.978 0 01-.258.548c-.111.143-.371.284-.565.483a6.056 6.056 0 01-1.698 1.473c-1.273.34-2.381.911-3.635 1.243-1.066.275-2.077.719-3.202.954a28.94 28.94 0 01-3.604.436c-1.732.157-3.658.245-5.55.447a25.573 25.573 0 01-5.947-.322 67.498 67.498 0 01-7.639-1.35 47.702 47.702 0 01-6.72-2.164c-1.005-.449-1.922-.998-2.882-1.466-1.128-.525-2.037-1.292-3.227-1.867a5.437 5.437 0 01-1.317-1.648 13.958 13.958 0 01-.892-1.847c-.01-.847-.098-1.69-.263-2.518z" fill="#FFD500"/><path d="M139.972 51.37l-1.795-.085-.507 10.772-1.541 71.002 2.244.105 1.024-40.887.575-40.908z" fill="#1F1F22"/><path clip-rule="evenodd" d="M143.212 140.256c-.24-.592-1.995-.526-2.371-.133-.376.393-.002.723-.156 1.233a2.767 2.767 0 00-.63-.018c.058-1.663.193-4.001.273-5.717a7.928 7.928 0 00-.029-1.879c-.183-.614-.859-.745-1.486-.972-.079-6.776.382-13.596.462-20.437.032-3.401.077-6.796.237-10.205.16-3.409.288-6.87.299-10.295.011-3.425.117-6.725.106-10.097-.011-3.373.122-6.793.162-10.175.069-6.76-.011-13.514.228-20.288.416-.296.874-.53 1.358-.692.196-.353.25-.867.408-1.259-.079-.197-.098-.244-.116-.477-.045-.703.05-1.44.027-2.197-.047-2.166-.105-4.252.008-6.483-.29-.714-1.214-1.027-2.361-.945.105-1.278.115-3.14-1.385-2.5a3.874 3.874 0 00-.498 2.574 2.023 2.023 0 00-1.569 1.171c-.03 1.706-.269 3.464-.295 5.18-.1 1.598.01 3.203.328 4.773.46.273 1.094.41 1.457.765.08 3.246-.267 6.731-.32 10.162a379.66 379.66 0 00-.036 6.572c.005 3.277-.232 6.793-.268 10.13-.023 1.102.098 2.211.043 3.261-.208 4.532-.368 9.1-.455 13.604-.047 2.15-.028 4.383-.071 6.652-.019 1.516-.12 3.425-.124 5.088.051.552.052 1.107.006 1.659-.078.239-.301.122-.329.428-.029.307.376-.043.318.112.033 7.768-.523 16.025-.54 23.835-.57-.032-1.202-.027-1.489.396a5.32 5.32 0 00-.403 2.458c-.019.925.008 1.854 0 2.535-.429.075-1.046.118-1.29.457-.245.34-.19.908-.399 1.255-.183.29-.39.563-.619.819a21.128 21.128 0 00-2.329 5.041 3.816 3.816 0 00-.394 2.346c.304-.058.65.174.95.052.3-.122.562-.905.748-1.309.367-.95.877-1.838 1.512-2.634.002 1.54-.224 3.654 1.575 3.482-.098 3.318-.147 7.163-.196 10.549-.094 1.162-.1 2.33-.016 3.493a4.76 4.76 0 001.027 1.889c.299.031.587.132.841.294-.317.325-.232.804-.352 1.235a18.51 18.51 0 01-2.237 4.108c-.247.452-.524.885-.83 1.298-.249.276-.663.52-.998.853a6.93 6.93 0 01-.999.907c-.761.494-1.4 1.212-2.118 1.623-.443.256-.939.381-1.436.691a44.509 44.509 0 01-4.33 2.071 30.59 30.59 0 01-3.18 1.026 16.812 16.812 0 01-3.246.889c-1.047.297-2.125.47-3.212.515-1.045.117-2.116.387-3.208.524-1.093.136-2.217.275-3.362.334-1.145.06-2.404.002-3.635.064-1.219.06-2.44.054-3.657-.016a34.615 34.615 0 01-3.83-.339c-2.523-.453-5.147-.537-7.606-.995-2.458-.457-4.815-.934-7.07-1.507-1.1-.246-2.18-.575-3.23-.986-.523-.214-1.039-.355-1.527-.562a14.42 14.42 0 01-1.391-.736c-1.903-1.055-3.983-1.523-5.494-2.769a29.238 29.238 0 01-4.66-4.734c-.201-.28-.426-.538-.606-.848a13.533 13.533 0 01-.808-1.858 9.277 9.277 0 01-.684-1.985c-.058-.359-.122-.76-.178-1.141-.056-.382-.195-.752-.227-1.1.016-.541.068-1.08.155-1.614a9.661 9.661 0 011.402-4.065c1.295-2.197 3.932-3.189 6.094-4.109.073 2.878-.316 5.8.101 8.341.176.844.272 1.702.284 2.563.266.65.58 1.279.938 1.882a5.62 5.62 0 001.38 1.681c1.244.589 2.196 1.373 3.376 1.911 1.002.479 1.962 1.041 3.012 1.501a51.07 51.07 0 007.022 2.226 72.33 72.33 0 007.977 1.402c2.049.351 4.131.468 6.207.348 1.974-.198 3.984-.281 5.791-.433a31.044 31.044 0 003.76-.431c1.172-.235 2.225-.683 3.338-.959 1.307-.333 2.461-.91 3.788-1.25a6.242 6.242 0 001.767-1.492c.202-.202.472-.345.588-.49.101-.18.19-.365.267-.556.091-.179.278-.364.34-.509.061-.146.082-.526.156-.774.292-.718.518-1.46.675-2.219.54-.123 1.07-.283 1.587-.479.169-.112.332-.232.488-.361l.619-.251a3.82 3.82 0 00.463-.505c.178-.181.423-.302.543-.438.12-.136.218-.406.396-.587.163-.139.313-.291.45-.455.089-.157.096-.411.196-.648.101-.238.286-.4.351-.591.345-1.09-.196-1.778-.283-2.694a14.75 14.75 0 00-2.085-1.614c.145.007.318.057.372-.052-.646-.219-1.32-.427-1.927-.684.242-3.125.527-6.387 1.006-9.467.656-4.178.936-8.477 1.395-12.739.459-4.263.862-8.447 1.15-12.619.36-5.315.818-10.658 1.491-15.794.137-1.039.095-2.06.177-3.099.081-1.038.167-2.122.273-3.182a10.663 10.663 0 01.421-3.034c.028-1.279-.052-2.448-.066-3.59a9.99 9.99 0 00.037-1.283c-.029-.206-.16-.394-.189-.6a10.978 10.978 0 00-1.234-3.992c-.084-.207-.321-.307-.456-.504-.134-.197-.343-.713-.603-1.056a31.696 31.696 0 00-2.114-3.034c-.306-.324-.627-.577-.909-.922-.845-1.034-1.867-1.91-2.76-2.848a19.797 19.797 0 00-2.079-1.704 12.481 12.481 0 00-2.267-1.551 8.278 8.278 0 00-.089-2.915 11.121 11.121 0 00-.757-2.491 14.593 14.593 0 00-1.949-3.057c-.246-.283-.763-.642-.835-.875a3.754 3.754 0 01.036-1.206c.329-1.288.569-2.598.718-3.919a4.048 4.048 0 01.082-1.738c-.138-.206-.3.176-.329-.03.131-1.89.411-4.112.511-6.076.126-.7.204-1.407.235-2.117-.045-.408-.432-.798-.491-1.211a12.48 12.48 0 00-2.756-1.408c.134-1.748.438-3.642.43-5.278-.049-.122-.276-.063-.314-.157.472.006 1.108-.23 1.459-.066a15.191 15.191 0 012.598-.627 10.242 10.242 0 002.374-.885 9.01 9.01 0 001.051-.94c.379-.29.741-.601 1.087-.931.286-.346.607-.848.927-1.327.579-.939 1-1.966 1.248-3.041.179-.519.33-1.047.452-1.582a3.67 3.67 0 00.09-.91c-.114-.282-.789-.304-1.333-.379-3.661-.484-7.763-.843-11.334-1.189-3.323-.326-6.498-.744-9.732-.822-.816-.019-2.519-.149-2.82.268-.12.269-.177.561-.167.855.021.793.114 1.582.278 2.357a9.594 9.594 0 001.563 3.859 7.336 7.336 0 001.212 1.617c.487.31.99.596 1.505.855a29.545 29.545 0 004.935 2.307c-.721-.08-.657.725-.733 1.51l-.403 4.13a5.54 5.54 0 00-1.888.142 3.859 3.859 0 00-1.54.624c-.355.362-.417 1.262-.525 1.994-.76 4.515-1.176 9.503-1.74 13.94a11.345 11.345 0 00-3.376 3.454 11.942 11.942 0 00-1.916 5.224c-3.707 2.016-7.354 3.723-10.435 6.261a15.787 15.787 0 00-2.267 2.011 14.18 14.18 0 00-3.225 7.93c-.06.658-.265 1.342-.284 1.994-.24 2.862-.69 6.389-1.015 9.471a23.762 23.762 0 01-.276 3.259c-.055.241-.357.44-.226.682.094-.093.096-.301.241-.349-.327 3.859-.997 7.682-1.416 11.502-.32 2.906-.606 5.841-1.058 8.636-.136.907-.35 1.836-.472 2.748-1.106 7.628-1.562 15.43-2.304 23.283a20.074 20.074 0 00-3.659 1.22 5.177 5.177 0 01-1.313 1.045c-.928.653-1.77 1.42-2.507 2.284a7.208 7.208 0 00-1.818 2.823c-.198.562-.327 1.16-.503 1.778-.076.271-.269.524-.331.801a4.051 4.051 0 00-.022 1.539c.025.197.006.391.022.592.105 1.033.279 2.058.52 3.067.116.674.279 1.338.49 1.988a25.67 25.67 0 005.351 7.383c.346-.009.474.442.69.65.897.543 1.642 1.356 2.557 1.915.486.283 1.012.475 1.506.777a23.89 23.89 0 002.965 1.575 37.799 37.799 0 004.183 1.584c.32.088.651.096 1.022.176.371.079.844.302 1.266.427.908.244 1.856.428 2.895.619.475.092.91.276 1.37.385 1.94.448 3.932.778 5.974 1.044 1.084.14 2.145.223 3.22.313a4.31 4.31 0 011.75.383c.17-.177.244-.153.517-.155.833-.02 1.722.232 2.638.254.916.022 1.66-.083 2.469-.137a3.305 3.305 0 011.605.158c.217-.273.635-.158.895-.165 1.098.014 2.095-.008 3.118-.018 1.67-.032 3.382-.365 4.873-.488.361-.026.747.036 1.087-.014.341-.051.404-.164.582-.236.179-.072.623.054.922.009.299-.044.469-.19.731-.219.567-.11 1.137-.188 1.65-.297.235-.095.507-.206.766-.212.26-.007.379.043.54.01.162-.032.47-.19.704-.285.97-.319 1.958-.584 2.957-.794-.045-.112-.177-.004-.248-.019.621-.328 1.258-.401 1.849-.695a12.207 12.207 0 012.582-1.046 11.831 11.831 0 011.794-.967c.648-.262 1.215-.722 1.841-.986.293-.292.626-.541.989-.74l1.079-.765c.489-.384 1.015-.892 1.527-1.22.635-.53 1.21-1.129 1.713-1.786.627-.637 1.001-1.28 1.555-1.854.084-.035.435-.275.203-.389 0 0-.142.244-.18.15-.038-.094.047-.019.057-.023a13.567 13.567 0 002.112-5.577 7.74 7.74 0 001.519-1.052c1.148-1.373.76-3.762.811-5.793.115-4.058.094-7.994.043-11.897a8.908 8.908 0 01.097-2.323c.164.053.237-.009.372.002.275.38.119.859.438 1.079a1.767 1.767 0 001.852-.149c.339-.378.355-1.39.403-1.999a5.55 5.55 0 00-.066-1.809z" stroke="#000" stroke-linecap="round" stroke-linejoin="round"/><path d="M98.593 32.44a17.351 17.351 0 004.319 2.566c.569.218 1.138.49 1.613.691.99.264 2.009.405 3.034.421a9.27 9.27 0 004.765-1.078 21.748 21.748 0 003.131-2.198c.083-.066.357-.144.277-.341-2.953-.006-6.012-.57-9.104-.891-3.091-.321-6.328-.65-9.18-1.078.201.629.864 1.213 1.145 1.907z" fill="#fff" stroke="#000" stroke-linecap="round" stroke-linejoin="round"/><path d="M70.008 162.794c-2.37-1.746-.667-11.884-.667-11.884s1.636 8.66 10.531 10.713c8.895 2.054 19.253 2.611 24.719 1.163 5.466-1.447 5.805-7.083 10.017-9.746l4.078.192c1.224.057 4.021 1.415 3.867 4.677-.153 3.263-5.124 4.664-5.124 4.664-.249 5.301-7.431 10.277-24.91 8.228-17.478-2.048-20.141-6.26-22.511-8.007z" fill="#1F1F22"/><path d="M26.639 31.07h-9v-3.45l8.01-12.09h4.95v12.39h2.1v3.15h-2.1V35h-3.96v-3.93zm0-3.15v-8.25l-5.25 8.25h5.25z" fill="#fff"/></svg>