<svg width="212" height="212" fill="none" xmlns="http://www.w3.org/2000/svg"><path d="M211 117.83c0-56.38-29.273-115.15-85.465-115.15C69.343 2.68 1 36.134 1 92.513S31.087 208.48 87.28 208.48c56.191 0 123.72-34.271 123.72-90.65z" fill="#fff"/><path d="M106 1C48.01 1 1 48.01 1 106c0 33.159 15.37 62.728 39.375 81.97M148.525 9.968C185.328 26.29 211 63.147 211 106c0 57.99-47.01 105-105 105a105.21 105.21 0 01-26.25-3.308" stroke="#000" stroke-linecap="round" stroke-linejoin="round"/><path d="M133.658 181.035c-3.066-.313-65.623-9.603-68.178-9.865-2.555-.261-3.85-2.743-3.493-6.23.357-3.487 13.433-125.685 13.79-129.173.357-3.487 2.52-4.44 5.586-4.126 3.066.314 64.296 5.917 67.361 6.23 3.066.315 4.932 2.267 4.634 5.173-.297 2.906-14.089 128.582-14.506 132.651-.417 4.068-2.128 5.654-5.194 5.34z" fill="#FFD500"/><path d="M144.95 40.148l-65.777-7.411c-2.741-.309-4.655 1.897-5.059 5.483L59.5 167.933c-.404 3.587 1.654 5.03 4.943 5.4l64.132 7.226c3.289.371 5.684-1.176 6.02-4.164L149.21 46.682c.472-4.185-.97-6.163-4.259-6.534z" stroke="#000" stroke-linecap="round" stroke-linejoin="round"/><path d="M99.192 43.94l-18.774-2.116c-2.209-.249-2.395 1.405-2.705 4.161L64.472 163.503c-.373 3.307 1.711 4.658 4.472 4.969l57.426 6.471c2.761.311 4.052-1.218 4.362-3.974l13.241-117.518c.311-2.756-.607-4.534-3.368-4.845l-16.565-1.867c-1.905 2.018-1.325 4.317-4.362 3.974l-17.118-1.928c-3.865-.436-2.388-3.619-3.368-4.845z" fill="#fff" stroke="#000" stroke-linecap="round" stroke-linejoin="round"/><circle cx="103.782" cy="108.656" r="28.006" transform="rotate(6.429 103.782 108.656)" fill="#1F1F22"/><path d="M94.113 100.529l-4.944 2.584 6.576 14.698 5.3.597 34.239-27.546-3.145-3.843-32.752 23.875-5.274-10.365z" fill="#fff" stroke="#1F1F22" stroke-linecap="round" stroke-linejoin="round"/><circle cx="26" cy="26" r="25" fill="#000"/><path d="M24.719 20.12l-5.31 2.94v-3.69l6.15-3.84h3.54V35h-4.38V20.12z" fill="#fff"/></svg>