<svg width="212" height="212" fill="none" xmlns="http://www.w3.org/2000/svg"><path d="M211 118.67c0-56.379-29.273-115.15-85.465-115.15C69.343 3.52 1 36.974 1 93.353S31.087 209.32 87.28 209.32c56.191 0 123.72-34.271 123.72-90.65z" fill="#fff"/><path d="M106 1C48.01 1 1 48.01 1 106c0 33.159 15.37 62.728 39.375 81.97M148.525 9.968C185.328 26.29 211 63.147 211 106c0 57.99-47.01 105-105 105a105.21 105.21 0 01-26.25-3.308" stroke="#000" stroke-linecap="round" stroke-linejoin="round"/><circle cx="26" cy="26" r="25" fill="#000"/><path d="M24.899 35.3c-1.38 0-3.45-.11-6.21-.33v-3.63c2.48.46 4.35.69 5.61.69 1.1 0 1.9-.12 2.4-.36.5-.26.75-.66.75-1.2v-2.91c0-.54-.18-.92-.54-1.14-.36-.24-.95-.36-1.77-.36h-6V15.53h12.3v3.36h-7.92v3.96h3.06c1.16 0 2.29.22 3.39.66.6.26 1.08.66 1.44 1.2.36.54.54 1.17.54 1.89v4.08c0 .78-.15 1.48-.45 2.1-.3.6-.68 1.06-1.14 1.38-.4.3-.94.54-1.62.72-.66.18-1.3.3-1.92.36-.72.04-1.36.06-1.92.06z" fill="#fff"/><path d="M127.282 178.293c-14.236-1.465-16.395-10.347-14.48-32.808l-77.284-7.95c-1.952 14.035-2.127 30.031 13.41 32.697 15.538 2.666 78.354 8.061 78.354 8.061zm50.553-93.973c1.845-21.637 5.375-36.458-8.861-37.923-16.163-1.662-14.232 12.416-16.186 35.347l25.047 2.577z" fill="#1F1F22"/><path d="M127.282 178.293c-14.236-1.465-16.395-10.347-14.48-32.808l-77.284-7.95c-1.952 14.035-2.127 30.031 13.41 32.697 15.538 2.666 78.354 8.061 78.354 8.061zm50.553-93.973c1.845-21.637 5.375-36.458-8.861-37.923-16.163-1.662-14.232 12.416-16.186 35.347l25.047 2.577z" stroke="#000" stroke-linecap="round" stroke-linejoin="round"/><path d="M127.603 174.648c-14.482-1.489-16.697-10.295-14.8-32.545l-60.741-6.126 7.228-84.804c1.191-13.978 7.103-18.912 14.18-18.184 7.078.728 95.844 11.442 95.844 11.442-16.441-1.691-16.65 11.765-18.586 34.48 0 0-3.165 68.174-3.79 75.513-.626 7.339-4.854 21.714-19.335 20.224z" fill="#FFD500"/><path d="M127.282 177.473c-14.236-1.465-16.394-10.347-14.48-32.807l-57.16-5.88m71.64 38.687s-62.816-5.395-78.353-8.061c-15.538-2.666-15.363-18.662-13.41-32.697l20.123 2.071m71.64 38.687c14.237 1.464 18.039-8.94 18.67-16.348l6.836-80.2m-97.146 57.861l7.297-85.61c1.203-14.112 6.594-17.828 13.552-17.112l92.483 9.514m0 0c14.237 1.464 10.706 16.285 8.861 37.923l-25.047-2.577m16.186-35.347c-16.163-1.662-14.232 12.416-16.186 35.347" stroke="#000" stroke-linecap="round" stroke-linejoin="round"/><path d="M72.004 114.664a.817.817 0 01.892-.802l61.656 5.662a.82.82 0 01.711 1.039l-.823 2.911a.817.817 0 01-.862.593l-60.883-5.652a.818.818 0 01-.74-.83l.05-2.921zm-1.13 9.586a.818.818 0 01.893-.784l41.548 3.91a.818.818 0 01.721.992l-.643 2.926a.82.82 0 01-.876.64l-41.019-3.92a.819.819 0 01-.738-.848l.114-2.916z" fill="#1F1F22"/><path d="M85.73 87.194l2.016-21.52 20.905-7.889 18.842 11.61-2.015 21.521c-.804 8.585-21.529 17.083-21.529 17.083s-19.066-11.75-18.218-20.805z" fill="#fff" stroke="#000" stroke-linecap="round" stroke-linejoin="round"/><path d="M98.04 75.165l-4.786 2.627 6.694 14.292 5.193.486 32.974-27.66-3.145-3.711-31.586 24.032-5.344-10.066z" fill="#1F1F22" stroke="#1F1F22" stroke-linecap="round" stroke-linejoin="round"/></svg>