<svg width="212" height="212" fill="none" xmlns="http://www.w3.org/2000/svg"><path d="M211 118.67c0-56.379-29.273-115.15-85.465-115.15C69.343 3.52 1 36.974 1 93.353S31.087 209.32 87.28 209.32c56.191 0 123.72-34.271 123.72-90.65z" fill="#fff"/><path d="M106 1C48.01 1 1 48.01 1 106c0 33.159 15.37 62.728 39.375 81.97M148.525 9.968C185.328 26.29 211 63.147 211 106c0 57.99-47.01 105-105 105a105.21 105.21 0 01-26.25-3.308" stroke="#000" stroke-linecap="round" stroke-linejoin="round"/><circle cx="26" cy="26" r="25" fill="#000"/><path d="M62.594 62.214c-5.95 24.646 8.579 50.592 33.11 56.514a45.72 45.72 0 006.229 1.058l-7.74 54.308s-1.487 6.155 3.232 6.751c4.719.597 4.673-5.928 4.673-5.928l6.822-54.977c19.64-1.089 36.989-12.149 41.863-32.338 5.951-24.647-8.428-49.753-32.959-55.675-24.532-5.923-49.28 5.64-55.23 30.287z" fill="#FFD500"/><path d="M61.046 67.011c-5.768 23.89 9.038 47.961 33.069 53.763a45.42 45.42 0 006.1 1.04l-5.961 53.191s-1.44 5.967 3.18 6.556c4.622.59 4.562-5.739 4.562-5.739l5.06-53.842c19.226-1.01 36.289-14.389 41.014-33.959 5.768-23.89-9.038-47.96-33.068-53.763-24.031-5.801-48.188 8.863-53.956 32.753z" stroke="#000" stroke-linecap="round" stroke-linejoin="round"/><path d="M141.772 86.29c-4.895 20.276-25.3 32.745-45.576 27.85-20.276-4.895-32.745-25.3-27.85-45.577 4.895-20.276 25.3-32.745 45.577-27.85 20.276 4.896 32.745 25.301 27.849 45.577z" fill="#fff" stroke="#000" stroke-linecap="round" stroke-linejoin="round"/><path d="M85.218 63.502l-4.316-6.318m16.419 2.38l-1.446-7.208m14.211 7.125l1.445-5.983m9.114 10.643l4.094-3.76m5.762 13.526l6.604-3.154M126.698 92.46l4.316 6.318m-16.419-2.381l1.446 7.208m-14.212-7.124l-1.444 5.983m-9.114-10.643l-4.094 3.76m-5.763-13.526l-6.603 3.154" stroke="#000" stroke-linecap="round" stroke-linejoin="round"/><path d="M110.527 60.05c-18.608-3.96-36.853 10.285-36.853 10.285s7.616 21.02 28.102 25.966c20.485 4.945 35.353-10.647 35.353-10.647s-7.993-21.644-26.602-25.603z" fill="#fff" stroke="#000" stroke-linecap="round" stroke-linejoin="round"/><path d="M123.359 83.88c-3.118 9.818-11.997 15.225-21.569 12.184-9.572-3.04-16.212-13.376-13.094-23.193 3.118-9.817 15.102-15.033 24.674-11.993 9.572 3.04 13.107 13.185 9.989 23.003z" fill="#1F1F22"/><path d="M24.809 35.3c-1.68 0-3.86-.15-6.54-.45v-3.48l.96.18c.38.08.59.13.63.15l1.02.18c.24.04.75.1 1.53.18.6.06 1.21.09 1.83.09 1.16 0 1.96-.14 2.4-.42.46-.28.69-.81.69-1.59v-2.25c0-.94-1.01-1.41-3.03-1.41h-3.54v-3h3.54c1.56 0 2.34-.57 2.34-1.71v-1.89c0-.42-.08-.74-.24-.96-.16-.24-.45-.41-.87-.51-.4-.1-1-.15-1.8-.15-1.14 0-2.9.12-5.28.36V15.5c2.72-.18 4.64-.27 5.76-.27 2.44 0 4.2.28 5.28.84 1.1.56 1.65 1.55 1.65 2.97v3.21c0 .58-.18 1.08-.54 1.5-.34.4-.78.67-1.32.81 1.76.62 2.64 1.59 2.64 2.91v3.18c0 1.66-.57 2.85-1.71 3.57-1.14.72-2.94 1.08-5.4 1.08z" fill="#fff"/></svg>